<svg width="123" height="124" viewBox="0 0 123 124" fill="none" xmlns="http://www.w3.org/2000/svg">
<path d="M121 74.6614C94.5922 103.516 63.1302 118.243 50.7002 122L17.6663 115.032C13.7971 116.013 11.0079 113.805 10.097 112.578C-5.91439 79.2231 1.6909 55.9498 13.8801 41.8646C9.73991 33.4073 7.54391 17.0293 31.8816 19.1754C34.7135 20.1251 40.6305 22.8781 41.6432 26.2924C44.8402 9.2739 54.9862 2.95139 61.0021 2C76.3753 5.80334 78.4819 18.6097 76.9633 28.5824C108.342 41.9657 119.395 64.8781 121 74.6614Z" fill="#F8BF01"/>
<path d="M42.212 54.3618C36.2934 63.8923 33.2498 100.804 50.7002 117.698C67.862 111.068 104.976 92.8902 116.139 73.222C113.213 64.4762 101.905 44.279 80.0825 33.4569L76.3608 31.6819M42.212 54.3618C45.1198 57.0408 47.766 55.4523 48.5721 54.3618M42.212 54.3618C41.753 56.2741 40.9545 61.1338 44.3401 61.1338C46.1538 61.7444 49.5394 61.245 48.5721 54.3618M42.212 54.3618C40.7964 46.2923 40.4145 39.3708 40.7746 33.4569M50.7002 122C63.1302 118.243 94.5922 103.516 121 74.6614C119.395 64.8781 108.342 41.9657 76.9633 28.5824M50.7002 122C21.8548 98.3798 33.0746 59.7759 40.9502 44.7488M50.7002 122L17.6663 115.032M68.8616 26.2924C66.3889 25.921 61.3947 26.4902 56.0683 29.3676M56.0683 29.3676C53.2164 31.4658 47.1186 35.7747 45.4333 38.7894M56.0683 29.3676H45.2356M17.6663 115.032C-8.76081 63.5383 21.8097 36.4667 40.3983 29.3676C39.905 26.6534 37.8371 26.2481 35.9685 26.5706M17.6663 115.032C13.7971 116.013 11.0079 113.805 10.097 112.578C-5.91439 79.2231 1.6909 55.9498 13.8801 41.8646M48.5721 54.3618C47.7246 51.8337 46.903 48.7649 46.2712 45.4095M68.8616 36.3358C68.8616 34.0458 69.8773 33.4623 70.3851 33.4569C70.6156 32.3428 70.8022 31.2703 70.9482 30.2382M68.8616 36.3358C67.2413 38.1787 64.973 41.8646 68.8616 41.8646C70.8849 41.6574 74.9315 40.7523 74.9315 38.7894V36.3358M68.8616 36.3358C69.1679 37.2954 70.8107 38.6389 74.9315 36.3358M74.9315 36.3358C75.4563 34.978 75.9535 33.4012 76.3608 31.6819M13.8801 41.8646C9.73991 33.4073 7.54391 17.0293 31.8816 19.1754C34.7135 20.1251 40.6305 22.8781 41.6432 26.2924M13.8801 41.8646C14.8142 40.7853 15.7752 39.7599 16.7545 38.788M41.6432 26.2924C44.8402 9.2739 54.9862 2.95139 61.0021 2C76.3753 5.80334 78.4819 18.6097 76.9633 28.5824M41.6432 26.2924C41.229 28.4972 40.9314 30.8815 40.7746 33.4569M16.7545 38.788C22.3439 33.2414 28.531 29.4392 33.7238 27.3065C34.3228 27.0099 35.1254 26.7161 35.9685 26.5706M16.7545 38.788C13.9213 32.1027 12.9802 19.5897 31.8816 23.0194C33.0021 23.5548 35.3881 25.0147 35.9685 26.5706M46.2712 45.4095C49.0988 40.5088 57.1777 30.4395 66.8722 29.3676L70.9482 30.2382M46.2712 45.4095C45.9107 43.4942 45.6396 40.8443 45.4333 38.7894M70.9482 30.2382C73.2535 13.9452 65.4596 7.70133 61.0021 6.61427C49.98 10.0375 45.9384 19.2965 45.2356 29.3676M76.3608 31.6819C76.5955 30.6912 76.8003 29.6531 76.9633 28.5824M45.4333 38.7894C45.1202 35.6701 45.0184 32.4801 45.2356 29.3676M21.7516 108.852L27.7377 110.715M33.7238 112.578L27.7377 110.715M27.7377 110.715C18.9807 98.9388 9.32831 67.0009 40.7746 33.4569" stroke="black" stroke-width="2"/>
<path d="M108.225 64.8471C110.882 69.8257 110.014 75.2546 106.203 80.0409C102.397 84.8215 95.7103 88.8689 87.017 90.9924C78.3236 93.1159 69.3571 92.8919 61.9139 90.8592C54.4618 88.824 48.6663 85.0228 46.0087 80.0442C43.3511 75.0656 44.2195 69.6366 48.0303 64.8503C51.8366 60.0698 58.5229 56.0224 67.2163 53.8989C75.9096 51.7754 84.8761 51.9994 92.3193 54.0321C99.7715 56.0673 105.567 59.8685 108.225 64.8471Z" fill="#F6BA00" stroke="black" stroke-width="2"/>
<path d="M101.144 66.5749C103.171 70.3713 102.523 74.5368 99.5773 78.2359C96.6366 81.9293 91.4615 85.066 84.7201 86.7127C77.9786 88.3594 71.0349 88.1829 65.2844 86.6125C59.5249 85.0396 55.0919 82.1153 53.0653 78.3189C51.0388 74.5225 51.6873 70.357 54.6325 66.6578C57.5732 62.9644 62.7483 59.8278 69.4897 58.1811C76.2312 56.5344 83.1749 56.7109 88.9254 58.2813C94.6849 59.8542 99.1179 62.7784 101.144 66.5749Z" fill="white" stroke="black" stroke-width="2"/>
<mask id="path-5-inside-1" fill="white">
<path d="M69.0573 57.365C75.708 55.7405 82.8004 55.7814 89.0234 57.482C95.2478 59.1807 99.8603 62.3363 102.01 66.3644C104.161 70.3924 103.593 74.8135 100.409 78.8104C97.2273 82.808 91.8099 85.9047 85.1591 87.5293C78.5083 89.1538 71.416 89.1128 65.193 87.4123C58.9686 85.7135 54.3561 82.5579 52.2059 78.5299C50.0557 74.5018 50.6238 70.0808 53.8078 66.0839C56.989 62.0862 62.4065 58.9895 69.0573 57.365ZM68.987 57.2333C55.1134 60.6221 47.5031 70.1805 51.9884 78.583C56.4737 86.9855 71.3559 91.0498 85.2294 87.661C99.1029 84.2722 106.713 74.7138 102.228 66.3113C97.7426 57.9087 82.8605 53.8445 68.987 57.2333Z"/>
</mask>
<path d="M69.0573 57.365C75.708 55.7405 82.8004 55.7814 89.0234 57.482C95.2478 59.1807 99.8603 62.3363 102.01 66.3644C104.161 70.3924 103.593 74.8135 100.409 78.8104C97.2273 82.808 91.8099 85.9047 85.1591 87.5293C78.5083 89.1538 71.416 89.1128 65.193 87.4123C58.9686 85.7135 54.3561 82.5579 52.2059 78.5299C50.0557 74.5018 50.6238 70.0808 53.8078 66.0839C56.989 62.0862 62.4065 58.9895 69.0573 57.365ZM68.987 57.2333C55.1134 60.6221 47.5031 70.1805 51.9884 78.583C56.4737 86.9855 71.3559 91.0498 85.2294 87.661C99.1029 84.2722 106.713 74.7138 102.228 66.3113C97.7426 57.9087 82.8605 53.8445 68.987 57.2333Z" fill="black"/>
<path d="M89.0234 57.482L88.7284 59.213L88.7293 59.2133L89.0234 57.482ZM100.409 78.8104L98.5472 77.6055L98.5467 77.6061L100.409 78.8104ZM65.193 87.4123L65.4879 85.6812L65.487 85.681L65.193 87.4123ZM53.8078 66.0839L55.6692 67.2887L55.6696 67.2881L53.8078 66.0839ZM69.9991 59.1294C76.3355 57.5816 82.9985 57.6472 88.7284 59.213L89.3183 55.7509C82.6023 53.9156 75.0806 53.8993 68.1154 55.6006L69.9991 59.1294ZM88.7293 59.2133C94.4592 60.7771 98.3184 63.5622 100.068 66.839L103.953 65.8898C101.402 61.1105 96.0363 57.5844 89.3174 55.7507L88.7293 59.2133ZM100.068 66.839C101.817 70.1157 101.478 73.9262 98.5472 77.6055L102.27 80.0152C105.707 75.7007 106.505 70.6691 103.953 65.8898L100.068 66.839ZM98.5467 77.6061C95.6176 81.2871 90.5536 84.2171 84.2173 85.7649L86.1009 89.2936C93.0661 87.5923 98.8371 84.329 102.27 80.0146L98.5467 77.6061ZM84.2173 85.7649C77.8809 87.3126 71.2179 87.2471 65.4879 85.6812L64.8981 89.1433C71.6141 90.9786 79.1358 90.9949 86.1009 89.2936L84.2173 85.7649ZM65.487 85.681C59.7572 84.1172 55.8979 81.3321 54.1488 78.0553L50.263 79.0044C52.8143 83.7838 58.18 87.3098 64.899 89.1436L65.487 85.681ZM54.1488 78.0553C52.3996 74.7785 52.7381 70.968 55.6692 67.2887L51.9465 64.8791C48.5094 69.1935 47.7118 74.2251 50.263 79.0044L54.1488 78.0553ZM55.6696 67.2881C58.5988 63.6072 63.6627 60.6771 69.9991 59.1294L68.1154 55.6006C61.1503 57.302 55.3793 60.5652 51.946 64.8796L55.6696 67.2881ZM68.0451 55.4689C60.7782 57.244 55.062 60.6531 51.7416 64.8235C48.4303 68.9823 47.3902 74.0832 50.0455 79.0576L53.9313 78.1084C52.1013 74.6803 52.6237 70.8007 55.4647 67.2325C58.2965 63.6758 63.3222 60.6114 69.9288 58.9976L68.0451 55.4689ZM50.0455 79.0576C52.7009 84.0319 58.3187 87.5065 64.7939 89.2749C71.287 91.0481 78.9043 91.2004 86.1712 89.4253L84.2876 85.8966C77.681 87.5104 70.9205 87.3249 65.3828 85.8125C59.8272 84.2953 55.7613 81.5366 53.9313 78.1084L50.0455 79.0576ZM86.1712 89.4253C93.4382 87.6503 99.1544 84.2411 102.475 80.0708C105.786 75.912 106.826 70.8111 104.171 65.8367L100.285 66.7858C102.115 70.214 101.593 74.0935 98.7517 77.6617C95.9198 81.2184 90.8941 84.2829 84.2876 85.8966L86.1712 89.4253ZM104.171 65.8367C101.515 60.8623 95.8977 57.3877 89.4225 55.6193C82.9294 53.8461 75.3121 53.6939 68.0451 55.4689L69.9288 58.9976C76.5353 57.3839 83.2958 57.5694 88.8336 59.0817C94.3891 60.5989 98.4551 63.3577 100.285 66.7858L104.171 65.8367Z" fill="black" mask="url(#path-5-inside-1)"/>
<path d="M60.0203 87.7682C60.0203 87.7682 58.7803 87.3338 57.816 86.9064L55.36 85.6284C54.6719 85.0912 52.8834 84.4194 53.7021 84.0729L70.4833 77.2151C71.04 76.979 77.1362 74.7127 76.142 73.9227C75.3741 73.3125 69.6762 75.6624 69.0741 75.8552L63.699 77.4807C60.3118 78.4812 57.4229 78.4635 54.92 76.0446L52.5743 73.7772C50.027 71.3162 51.4675 68.7129 55.4104 67.1077L69.2958 61.2742C70.1144 60.9277 71.1993 60.4018 71.7595 60.9404L74.7722 63.8067C75.3311 64.3472 74.9844 64.4906 74.1679 64.8365L61.2182 70.579C60.6615 70.8151 55.2741 72.9645 55.6255 73.6228C55.9769 74.2811 62.002 72.111 62.6041 71.9182L67.9242 70.2854C71.3114 69.2849 74.232 69.2891 76.737 71.7074L79.0827 73.9748C81.63 76.4358 80.4657 78.8564 76.2466 80.6443L60.0203 87.7682Z" fill="#952215"/>
<path d="M86.0246 69.3534L88.7397 68.6693C89.5696 68.4602 89.8142 68.1131 89.5246 67.5913L89.2249 67.0511C88.9354 66.5292 88.4129 66.3754 87.583 66.5845L84.8679 67.2686L86.0246 69.3534ZM88.9373 74.6034L93.089 73.5573C93.9189 73.3482 94.1635 73.0011 93.874 72.4793L93.4564 71.7266C93.1676 71.2061 92.6553 71.0707 91.8254 71.2798L87.6737 72.3258L88.9373 74.6034ZM83.5555 67.6008C83.9419 67.5004 84.147 67.2291 84.0147 66.9949L82.2549 63.8587C82.1189 63.618 82.3838 63.4322 82.7803 63.3323L87.931 62.0346C92.1152 60.9803 95.1492 62.4424 96.2738 64.4695L96.7874 65.3952C97.3199 66.355 97.196 67.1155 96.3971 67.7277C96.3056 67.7986 96.4028 67.8937 96.5422 67.8735C99.0979 67.4941 100.754 68.1513 101.743 69.9332L102.729 71.7099C103.927 73.8707 102.537 75.3659 98.2895 76.436L85.7781 79.5884C85.2776 79.7145 84.7363 79.5714 84.569 79.2698L78.8565 68.8221L83.5555 67.6008Z" fill="#952215"/>
<path d="M84.2171 57.7371L92.1569 54.3259L92.2754 54.4388L85.7693 61.3053C81.0615 61.894 77.7135 62.7204 76.8996 63.2588L74.9073 61.4547L72.915 59.6507C76.8863 58.0119 78.7193 55.7611 79.2056 55.0561L91.7098 53.9003L91.8148 54.0003L83.875 57.4114C82.9161 57.1121 82.3792 57.3708 82.2306 57.5376C81.6594 57.7157 81.7747 58.2014 81.9038 58.4221C82.4117 58.8815 83.1416 58.7935 83.4431 58.692C84.2301 58.4849 84.287 57.9691 84.2171 57.7371Z" fill="#952215"/>
<path d="M61.206 7.11426C46.6112 11.8451 44.9962 23.9957 46.0131 29.4797H56.2623C64.4616 25.3687 69.5661 26.2225 71.0934 27.1632C72.3185 14.0017 65.0123 8.31328 61.206 7.11426Z" fill="#00BFFF"/>
<path d="M19.7751 23.8027C30.4705 20.7032 35.0886 24.6917 35.6795 26.8532L29.9158 29.2105L25.8282 31.5759L21.6923 34.5123L16.6522 38.9413C13.1313 29.0311 16.6522 25.8092 19.7751 23.8027Z" fill="#00BFFF"/>
<path d="M61.206 7.11426C46.6112 11.8451 44.9962 23.9957 46.0131 29.4797H56.2623C64.4616 25.3687 69.5661 26.2225 71.0934 27.1632C72.3185 14.0017 65.0123 8.31328 61.206 7.11426Z" stroke="black" stroke-width="2"/>
<path d="M19.7751 23.8027C30.4705 20.7032 35.0886 24.6917 35.6795 26.8532L29.9158 29.2105L25.8282 31.5759L21.6923 34.5123L16.6522 38.9413C13.1313 29.0311 16.6522 25.8092 19.7751 23.8027Z" stroke="black" stroke-width="2"/>
</svg>
