<svg width="493" height="494" viewBox="0 0 493 494" fill="none" xmlns="http://www.w3.org/2000/svg">
<path d="M491 298.701C383.168 416.524 254.698 476.66 203.943 492L69.0541 463.546C53.2546 467.554 41.8658 458.537 38.1463 453.527C-27.2337 317.327 3.82116 222.295 53.5938 164.781C36.6879 130.247 27.7209 63.3695 127.1 72.1327C138.664 76.0108 162.825 87.2523 166.96 101.194C180.014 31.7017 221.444 5.88483 246.009 2C308.782 17.5303 317.385 69.8231 311.184 110.545C439.312 165.193 484.448 258.752 491 298.701Z" fill="#F8BF01"/>
<path d="M169.282 215.811C145.115 254.727 132.687 405.449 203.943 474.433C274.02 447.36 425.57 373.135 471.152 292.823C459.204 257.111 413.029 174.639 323.92 130.449L308.723 123.201M169.282 215.811C181.156 226.75 191.961 220.263 195.253 215.811M169.282 215.811C167.408 223.619 164.147 243.463 177.972 243.463C185.378 245.956 199.203 243.917 195.253 215.811M169.282 215.811C163.502 182.86 161.942 154.597 163.413 130.449M203.943 492C254.698 476.66 383.168 416.524 491 298.701C484.448 258.752 439.312 165.193 311.184 110.545M203.943 492C86.1572 395.551 131.971 237.918 164.13 176.558M203.943 492L69.0541 463.546M278.101 101.194C268.005 99.6773 247.612 102.001 225.862 113.751M225.862 113.751C214.217 122.319 189.318 139.914 182.436 152.223M225.862 113.751H181.629M69.0541 463.546C-38.8566 253.281 85.9728 142.739 161.876 113.751C159.862 102.668 151.418 101.013 143.788 102.33M69.0541 463.546C53.2546 467.554 41.8658 458.537 38.1463 453.527C-27.2337 317.327 3.82116 222.295 53.5938 164.781M195.253 215.811C191.792 205.487 188.437 192.957 185.858 179.255M278.101 142.205C278.101 132.853 282.249 130.471 284.323 130.449C285.264 125.9 286.026 121.521 286.622 117.306M278.101 142.205C271.485 149.73 262.223 164.781 278.101 164.781C286.363 163.935 302.887 160.239 302.887 152.223V142.205M278.101 142.205C279.352 146.123 286.06 151.609 302.887 142.205M302.887 142.205C305.03 136.66 307.06 130.222 308.723 123.201M53.5938 164.781C36.6879 130.247 27.7209 63.3695 127.1 72.1327C138.664 76.0108 162.825 87.2523 166.96 101.194M53.5938 164.781C57.408 160.373 61.332 156.186 65.331 152.218M166.96 101.194C180.014 31.7017 221.444 5.88483 246.009 2C308.782 17.5303 317.385 69.8231 311.184 110.545M166.96 101.194C165.268 110.197 164.053 119.933 163.413 130.449M65.331 152.218C88.1541 129.569 113.418 114.043 134.622 105.335C137.068 104.124 140.345 102.924 143.788 102.33M65.331 152.218C53.7621 124.92 49.9193 73.8244 127.1 87.8291C131.675 90.0155 141.418 95.9765 143.788 102.33M185.858 179.255C197.404 159.244 230.392 118.128 269.978 113.751L286.622 117.306M185.858 179.255C184.385 171.435 183.278 160.614 182.436 152.223M286.622 117.306C296.035 50.7763 264.21 25.2804 246.009 20.8416C201.002 34.8197 184.498 72.6272 181.629 113.751M308.723 123.201C309.681 119.156 310.518 114.917 311.184 110.545M182.436 152.223C181.157 139.486 180.742 126.46 181.629 113.751M85.7357 438.31L110.179 445.919M134.622 453.527L110.179 445.919M110.179 445.919C74.4212 397.834 35.0073 267.42 163.413 130.449" stroke="black" stroke-width="2"/>
<path d="M441.828 257.894C453.316 279.415 449.371 302.525 433.448 322.524C417.529 342.518 389.694 359.31 353.687 368.106C317.68 376.901 280.407 376.012 249.277 367.51C218.139 359.007 193.278 342.933 181.79 321.412C170.301 299.891 174.246 276.781 190.17 256.782C206.088 236.788 233.923 219.996 269.93 211.2C305.937 202.405 343.211 203.294 374.34 211.795C405.479 220.299 430.34 236.373 441.828 257.894Z" fill="#F6BA00" stroke="black" stroke-width="2"/>
<path d="M412.919 264.949C421.83 281.643 418.783 299.593 406.394 315.154C394.01 330.708 372.346 343.782 344.309 350.63C316.272 357.478 287.258 356.783 263.041 350.17C238.814 343.553 219.516 331.061 210.605 314.367C201.693 297.673 204.741 279.723 217.129 264.162C229.514 248.608 251.178 235.534 279.214 228.686C307.251 221.837 336.265 222.532 360.483 229.146C384.71 235.763 404.007 248.255 412.919 264.949Z" fill="white" stroke="black" stroke-width="2"/>
<mask id="path-5-inside-1" fill="white">
<path d="M278.901 228.074C306.058 221.44 335.018 221.608 360.429 228.552C385.845 235.488 404.679 248.374 413.459 264.821C422.239 281.269 419.92 299.322 406.918 315.642C393.928 331.966 371.807 344.611 344.65 351.245C317.492 357.878 288.532 357.711 263.121 350.767C237.705 343.83 218.871 330.945 210.091 314.497C201.311 298.049 203.63 279.997 216.632 263.676C229.622 247.352 251.743 234.707 278.901 228.074ZM278.613 227.536C221.963 241.374 190.888 280.404 209.203 314.714C227.518 349.024 288.287 365.62 344.937 351.782C401.587 337.945 432.662 298.915 414.347 264.604C396.032 230.294 335.264 213.698 278.613 227.536Z"/>
</mask>
<path d="M278.901 228.074C306.058 221.44 335.018 221.608 360.429 228.552C385.845 235.488 404.679 248.374 413.459 264.821C422.239 281.269 419.92 299.322 406.918 315.642C393.928 331.966 371.807 344.611 344.65 351.245C317.492 357.878 288.532 357.711 263.121 350.767C237.705 343.83 218.871 330.945 210.091 314.497C201.311 298.049 203.63 279.997 216.632 263.676C229.622 247.352 251.743 234.707 278.901 228.074ZM278.613 227.536C221.963 241.374 190.888 280.404 209.203 314.714C227.518 349.024 288.287 365.62 344.937 351.782C401.587 337.945 432.662 298.915 414.347 264.604C396.032 230.294 335.264 213.698 278.613 227.536Z" fill="black"/>
<path d="M360.429 228.552L360.134 230.283L360.135 230.283L360.429 228.552ZM406.918 315.642L405.057 314.438L405.056 314.438L406.918 315.642ZM263.121 350.767L263.416 349.036L263.415 349.036L263.121 350.767ZM216.632 263.676L218.493 264.881L218.494 264.88L216.632 263.676ZM279.842 229.838C306.685 223.282 335.216 223.473 360.134 230.283L360.724 226.821C334.82 219.742 305.43 219.599 277.959 226.31L279.842 229.838ZM360.135 230.283C385.057 237.085 403.138 249.599 411.517 265.296L415.402 264.347C406.221 247.148 386.634 233.892 360.723 226.82L360.135 230.283ZM411.517 265.296C419.895 280.993 417.805 298.435 405.057 314.438L408.78 316.847C422.034 300.209 424.583 281.546 415.402 264.347L411.517 265.296ZM405.056 314.438C392.319 330.445 370.551 342.923 343.708 349.48L345.591 353.009C373.063 346.299 395.538 333.487 408.78 316.847L405.056 314.438ZM343.708 349.48C316.865 356.037 288.334 355.845 263.416 349.036L262.827 352.498C288.73 359.577 318.12 359.719 345.591 353.009L343.708 349.48ZM263.415 349.036C238.494 342.234 220.413 329.719 212.034 314.023L208.148 314.972C217.329 332.171 236.916 345.427 262.827 352.498L263.415 349.036ZM212.034 314.023C203.655 298.326 205.745 280.884 218.493 264.881L214.771 262.471C201.516 279.109 198.967 297.773 208.148 314.972L212.034 314.023ZM218.494 264.88C231.232 248.873 252.999 236.395 279.842 229.838L277.959 226.31C250.487 233.02 228.012 245.831 214.77 262.472L218.494 264.88ZM277.672 225.772C249.016 232.771 226.74 246.16 213.935 262.243C201.139 278.315 197.69 297.26 207.26 315.189L211.146 314.239C202.401 297.857 205.332 280.133 217.658 264.652C229.974 249.183 251.56 236.139 279.555 229.3L277.672 225.772ZM207.26 315.189C216.83 333.117 237.377 346.201 262.4 353.035C287.44 359.873 317.223 360.546 345.879 353.547L343.995 350.018C316 356.856 287.074 356.15 262.989 349.573C238.885 342.99 219.89 330.621 211.146 314.239L207.26 315.189ZM345.879 353.547C374.534 346.547 396.811 333.158 409.616 317.075C422.412 301.004 425.861 282.058 416.29 264.13L412.405 265.079C421.149 281.461 418.218 299.186 405.892 314.666C393.576 330.135 371.99 343.18 343.995 350.018L345.879 353.547ZM416.29 264.13C406.72 246.202 386.173 233.117 361.151 226.284C336.11 219.445 306.327 218.772 277.672 225.772L279.555 229.3C307.55 222.462 336.476 223.168 360.562 229.746C384.665 236.328 403.66 248.697 412.405 265.079L416.29 264.13Z" fill="black" mask="url(#path-5-inside-1)"/>
<path d="M241.999 352.218C241.999 352.218 236.935 350.444 232.998 348.699L222.969 343.48C220.159 341.287 212.857 338.544 216.199 337.129L284.723 309.126C286.996 308.162 311.889 298.908 307.829 295.682C304.694 293.191 281.427 302.786 278.969 303.573L257.02 310.211C243.189 314.296 231.393 314.224 221.173 304.347L211.594 295.088C201.193 285.039 207.075 274.409 223.175 267.854L279.874 244.034C283.216 242.619 287.646 240.472 289.934 242.671L302.236 254.375C304.518 256.582 303.102 257.168 299.768 258.58L246.89 282.029C244.617 282.993 222.618 291.77 224.053 294.458C225.488 297.146 250.091 288.284 252.549 287.497L274.273 280.83C288.104 276.745 300.03 276.762 310.258 286.636L319.837 295.895C330.238 305.944 325.484 315.828 308.256 323.129L241.999 352.218Z" fill="#952215"/>
<path d="M348.183 277.027L359.27 274.233C362.659 273.379 363.657 271.962 362.475 269.831L361.251 267.625C360.069 265.495 357.936 264.867 354.547 265.72L343.46 268.514L348.183 277.027ZM360.077 298.464L377.03 294.193C380.419 293.339 381.417 291.921 380.235 289.791L378.53 286.717C377.351 284.592 375.259 284.039 371.87 284.893L354.917 289.164L360.077 298.464ZM338.101 269.87C339.679 269.46 340.517 268.352 339.976 267.396L332.79 254.59C332.235 253.607 333.317 252.849 334.936 252.441L355.968 247.141C373.053 242.836 385.442 248.807 390.034 257.084L392.131 260.864C394.306 264.783 393.8 267.888 390.538 270.389C390.164 270.678 390.561 271.066 391.13 270.984C401.566 269.435 408.329 272.118 412.366 279.394L416.391 286.649C421.286 295.472 415.607 301.578 398.265 305.947L347.177 318.819C345.133 319.334 342.923 318.75 342.24 317.519L318.913 274.857L338.101 269.87Z" fill="#952215"/>
<path d="M340.803 229.592L373.224 215.663L373.708 216.124L347.141 244.162C327.918 246.566 314.247 249.94 310.923 252.139L302.788 244.772L294.653 237.405C310.869 230.714 318.354 221.523 320.34 218.644L371.398 213.925L371.827 214.333L339.406 228.262C335.491 227.039 333.298 228.096 332.692 228.777C330.359 229.504 330.83 231.488 331.357 232.389C333.431 234.265 336.411 233.905 337.643 233.491C340.856 232.645 341.089 230.539 340.803 229.592Z" fill="#952215"/>
<path d="M246.841 22.8828C187.245 42.2004 180.651 91.8154 184.803 114.208H226.654C260.135 97.422 280.978 100.908 287.214 104.749C292.217 51.0065 262.383 27.7788 246.841 22.8828Z" fill="#2F5697"/>
<path d="M77.6647 91.0272C121.338 78.3708 140.195 94.6576 142.607 103.484L119.072 113.109L102.381 122.768L85.4934 134.758L64.9127 152.843C50.5358 112.376 64.9127 99.2205 77.6647 91.0272Z" fill="#2F5697"/>
<path d="M246.841 22.8828C187.245 42.2004 180.651 91.8154 184.803 114.208H226.654C260.135 97.422 280.978 100.908 287.214 104.749C292.217 51.0065 262.383 27.7788 246.841 22.8828Z" stroke="black" stroke-width="2"/>
<path d="M77.6647 91.0272C121.338 78.3708 140.195 94.6576 142.607 103.484L119.072 113.109L102.381 122.768L85.4934 134.758L64.9127 152.843C50.5358 112.376 64.9127 99.2205 77.6647 91.0272Z" stroke="black" stroke-width="2"/>
</svg>
