<svg width="1440" height="800" viewBox="0 0 1440 800" fill="none" xmlns="http://www.w3.org/2000/svg">
<g clip-path="url(#clip0_4:2)">
<rect width="1440" height="800" fill="white"/>
<rect x="24" y="50" width="907" height="680" rx="116" fill="#1D1F1C"/>
<path d="M466.044 227.976L421.5 171.353L399.168 227.976H466.044Z" fill="#F4900C"/>
<path d="M488.628 159.05L449.25 233.04H528L488.628 159.05Z" fill="#F4900C"/>
<path d="M511.956 227.976L556.5 171.353L578.832 227.976H511.956Z" fill="#F4900C"/>
<path d="M553.014 216.718L524.322 147.04L489.042 216.724L489 216.742L488.958 216.718L453.678 147.034L424.986 216.718C406.182 190.697 388.68 174.029 388.68 174.029C388.68 174.029 399 249.924 399 323.083H579C579 249.924 589.32 174.029 589.32 174.029C589.32 174.029 571.818 190.697 553.014 216.718V216.718Z" fill="#FFCC4D"/>
<path d="M488.742 279.415C500.963 279.415 510.87 269.553 510.87 257.389C510.87 245.225 500.963 235.363 488.742 235.363C476.521 235.363 466.614 245.225 466.614 257.389C466.614 269.553 476.521 279.415 488.742 279.415Z" fill="#5C913B"/>
<path d="M539.778 271.794C547.771 271.794 554.25 265.345 554.25 257.389C554.25 249.433 547.771 242.984 539.778 242.984C531.785 242.984 525.306 249.433 525.306 257.389C525.306 265.345 531.785 271.794 539.778 271.794Z" fill="#981CEB"/>
<path d="M578.112 269.25C584.693 269.25 590.028 263.939 590.028 257.389C590.028 250.838 584.693 245.528 578.112 245.528C571.531 245.528 566.196 250.838 566.196 257.389C566.196 263.939 571.531 269.25 578.112 269.25Z" fill="#DD2E44"/>
<path d="M437.7 271.794C445.693 271.794 452.172 265.345 452.172 257.389C452.172 249.433 445.693 242.984 437.7 242.984C429.707 242.984 423.228 249.433 423.228 257.389C423.228 265.345 429.707 271.794 437.7 271.794Z" fill="#981CEB"/>
<path d="M399.366 269.25C405.947 269.25 411.282 263.939 411.282 257.389C411.282 250.838 405.947 245.528 399.366 245.528C392.785 245.528 387.45 250.838 387.45 257.389C387.45 263.939 392.785 269.25 399.366 269.25Z" fill="#DD2E44"/>
<path d="M579 329.055H399C397.409 329.055 395.883 328.426 394.757 327.306C393.632 326.186 393 324.667 393 323.083C393 321.499 393.632 319.98 394.757 318.86C395.883 317.74 397.409 317.111 399 317.111H579C580.591 317.111 582.117 317.74 583.243 318.86C584.368 319.98 585 321.499 585 323.083C585 324.667 584.368 326.186 583.243 327.306C582.117 328.426 580.591 329.055 579 329.055ZM579 308.236H399C397.409 308.236 395.883 307.607 394.757 306.487C393.632 305.367 393 303.848 393 302.264C393 300.68 393.632 299.161 394.757 298.041C395.883 296.921 397.409 296.292 399 296.292H579C580.591 296.292 582.117 296.921 583.243 298.041C584.368 299.161 585 300.68 585 302.264C585 303.848 584.368 305.367 583.243 306.487C582.117 307.607 580.591 308.236 579 308.236Z" fill="#FFAC33"/>
<path d="M389.682 182.432C394.344 182.432 398.124 178.669 398.124 174.029C398.124 169.388 394.344 165.626 389.682 165.626C385.02 165.626 381.24 169.388 381.24 174.029C381.24 178.669 385.02 182.432 389.682 182.432Z" fill="#FFCC4D"/>
<path d="M421.5 178.472C425.45 178.472 428.652 175.285 428.652 171.353C428.652 167.421 425.45 164.234 421.5 164.234C417.55 164.234 414.348 167.421 414.348 171.353C414.348 175.285 417.55 178.472 421.5 178.472Z" fill="#F4900C"/>
<path d="M453.678 157.695C459.59 157.695 464.382 152.924 464.382 147.04C464.382 141.156 459.59 136.386 453.678 136.386C447.766 136.386 442.974 141.156 442.974 147.04C442.974 152.924 447.766 157.695 453.678 157.695Z" fill="#FFCC4D"/>
<path d="M588.318 182.432C592.98 182.432 596.76 178.669 596.76 174.029C596.76 169.388 592.98 165.626 588.318 165.626C583.656 165.626 579.876 169.388 579.876 174.029C579.876 178.669 583.656 182.432 588.318 182.432Z" fill="#FFCC4D"/>
<path d="M556.5 178.472C560.45 178.472 563.652 175.285 563.652 171.353C563.652 167.421 560.45 164.234 556.5 164.234C552.55 164.234 549.348 167.421 549.348 171.353C549.348 175.285 552.55 178.472 556.5 178.472Z" fill="#F4900C"/>
<path d="M524.322 157.695C530.234 157.695 535.026 152.924 535.026 147.04C535.026 141.156 530.234 136.386 524.322 136.386C518.41 136.386 513.618 141.156 513.618 147.04C513.618 152.924 518.41 157.695 524.322 157.695Z" fill="#FFCC4D"/>
<path d="M488.628 169.705C494.54 169.705 499.332 164.935 499.332 159.05C499.332 153.166 494.54 148.396 488.628 148.396C482.716 148.396 477.924 153.166 477.924 159.05C477.924 164.935 482.716 169.705 488.628 169.705Z" fill="#F4900C"/>
<path d="M391.107 515.736H413.571V384.12H391.107V368.856H459.651V384.12H437.187V446.04L504.003 384.12H485.571V368.856H552.675V384.12H531.363L461.091 449.208L532.515 515.736H554.115V531H484.707V515.736H503.715L437.187 454.104V515.736H459.651V531H391.107V515.736Z" fill="white"/>
<path d="M135.368 479.408C131.336 489.712 122.888 494.928 110.024 495.056C104.456 495.056 99.528 493.872 95.24 491.504C90.952 489.072 87.624 485.744 85.256 481.52C82.888 477.296 81.704 472.432 81.704 466.928C81.704 461.552 82.856 456.752 85.16 452.528C87.528 448.304 90.856 445.008 95.144 442.64C99.496 440.208 104.488 438.992 110.12 438.992C114.152 438.992 117.768 439.76 120.968 441.296C124.168 442.768 126.664 444.816 128.456 447.44V439.952H134.216V456.272L129.032 456.464C127.048 452.368 124.552 449.392 121.544 447.536C118.536 445.68 114.856 444.752 110.504 444.752C106.344 444.752 102.664 445.744 99.464 447.728C96.328 449.648 93.896 452.272 92.168 455.6C90.44 458.928 89.576 462.672 89.576 466.832C89.576 471.312 90.472 475.248 92.264 478.64C94.056 482.032 96.552 484.656 99.752 486.512C102.952 488.368 106.536 489.296 110.504 489.296C114.856 489.296 118.728 488.272 122.12 486.224C125.576 484.176 128.072 480.944 129.608 476.528L135.368 479.408ZM174.828 495.056C169.068 495.056 163.948 493.808 159.468 491.312C155.052 488.752 151.628 485.36 149.196 481.136C146.764 476.848 145.548 472.176 145.548 467.12C145.548 462.064 146.764 457.392 149.196 453.104C151.628 448.752 155.052 445.328 159.468 442.832C163.948 440.272 169.068 438.992 174.828 438.992C180.588 438.992 185.676 440.272 190.092 442.832C194.572 445.328 198.028 448.752 200.46 453.104C202.892 457.392 204.108 462.064 204.108 467.12C204.108 472.176 202.892 476.848 200.46 481.136C198.028 485.36 194.572 488.752 190.092 491.312C185.676 493.808 180.588 495.056 174.828 495.056ZM174.828 489.296C179.116 489.296 182.828 488.304 185.964 486.32C189.1 484.336 191.5 481.68 193.164 478.352C194.892 474.96 195.756 471.216 195.756 467.12C195.756 462.96 194.892 459.184 193.164 455.792C191.5 452.4 189.1 449.712 185.964 447.728C182.828 445.68 179.116 444.656 174.828 444.656C170.54 444.656 166.828 445.68 163.692 447.728C160.556 449.712 158.156 452.432 156.492 455.888C154.828 459.28 153.996 463.056 153.996 467.216C153.996 471.376 154.828 475.12 156.492 478.448C158.156 481.776 160.556 484.432 163.692 486.416C166.828 488.336 170.54 489.296 174.828 489.296ZM241.258 494.96C233.578 494.96 227.882 493.104 224.17 489.392C220.522 485.68 218.698 480.688 218.698 474.416V445.04H211.498V439.952H233.674V445.04H226.474V475.472C226.474 479.76 227.786 483.12 230.41 485.552C233.098 487.984 236.778 489.2 241.45 489.2C246.506 489.2 250.41 487.984 253.162 485.552C255.978 483.12 257.386 479.728 257.386 475.376V445.04H250.282V439.952H271.306V445.04H264.01V475.088C264.01 481.552 261.93 486.48 257.77 489.872C253.674 493.264 248.17 494.96 241.258 494.96ZM300.579 462.896C307.235 464.048 312.003 465.808 314.883 468.176C317.827 470.48 319.299 474.128 319.299 479.12C319.299 482 318.627 484.656 317.283 487.088C315.939 489.456 313.955 491.376 311.331 492.848C308.707 494.256 305.603 494.96 302.019 494.96C298.691 494.96 295.651 494.288 292.899 492.944C290.211 491.6 288.003 489.744 286.275 487.376V494H280.035V475.76H285.795C286.179 479.792 287.779 483.088 290.595 485.648C293.475 488.144 297.187 489.392 301.731 489.392C305.059 489.392 307.651 488.592 309.507 486.992C311.363 485.392 312.291 483.152 312.291 480.272C312.291 477.968 311.875 476.176 311.043 474.896C310.211 473.552 308.867 472.528 307.011 471.824C305.219 471.056 302.627 470.384 299.235 469.808L296.931 469.424C291.491 468.528 287.267 466.8 284.259 464.24C281.251 461.616 279.747 458.096 279.747 453.68C279.747 449.008 281.283 445.392 284.355 442.832C287.427 440.208 291.555 438.896 296.739 438.896C299.683 438.896 302.339 439.408 304.707 440.432C307.139 441.392 309.091 442.8 310.563 444.656V439.952H316.707V455.216H311.043C309.827 448.048 305.187 444.464 297.123 444.464C293.859 444.464 291.299 445.232 289.443 446.768C287.651 448.304 286.755 450.352 286.755 452.912C286.755 455.6 287.715 457.712 289.635 459.248C291.555 460.72 294.467 461.808 298.371 462.512L300.579 462.896Z" fill="#F94343"/>
<circle cx="175" cy="467" r="17" fill="#F1F500"/>
<circle cx="637" cy="399" r="17" fill="#F1F500"/>
<path d="M624.8 488.912H632.288V445.04H624.8V439.952H647.744V445.04H640.16V488.912H647.744V494H624.8V488.912ZM656.467 488.912H664.147V445.04H656.467V439.952H673.171L704.083 483.632V445.04H696.403V439.952H717.619V445.04H710.131V494H702.355L670.099 448.016V488.912H677.779V494H656.467V488.912ZM781.469 466.736V469.616C781.469 477.424 779.101 483.6 774.365 488.144C769.629 492.688 762.941 494.96 754.301 494.96C748.157 494.96 742.845 493.776 738.365 491.408C733.949 489.04 730.557 485.744 728.189 481.52C725.885 477.232 724.733 472.336 724.733 466.832C724.733 461.328 725.981 456.464 728.477 452.24C730.973 448.016 734.429 444.752 738.845 442.448C743.325 440.144 748.413 438.992 754.109 438.992C758.141 438.992 761.725 439.664 764.861 441.008C767.997 442.352 770.589 444.272 772.637 446.768V439.952H778.877V456.656H773.309C771.581 452.816 769.085 449.872 765.821 447.824C762.557 445.712 758.749 444.656 754.397 444.656C747.869 444.656 742.685 446.608 738.845 450.512C735.069 454.416 733.181 459.696 733.181 466.352C733.181 473.392 735.101 478.96 738.941 483.056C742.781 487.152 747.997 489.2 754.589 489.2C760.221 489.072 764.797 487.6 768.317 484.784C771.837 481.968 773.661 477.744 773.789 472.112H762.365V466.736H781.469ZM813.11 462.896C819.766 464.048 824.534 465.808 827.414 468.176C830.358 470.48 831.83 474.128 831.83 479.12C831.83 482 831.158 484.656 829.814 487.088C828.47 489.456 826.486 491.376 823.862 492.848C821.238 494.256 818.134 494.96 814.55 494.96C811.222 494.96 808.182 494.288 805.43 492.944C802.742 491.6 800.534 489.744 798.806 487.376V494H792.566V475.76H798.326C798.71 479.792 800.31 483.088 803.126 485.648C806.006 488.144 809.718 489.392 814.262 489.392C817.59 489.392 820.182 488.592 822.038 486.992C823.894 485.392 824.822 483.152 824.822 480.272C824.822 477.968 824.406 476.176 823.574 474.896C822.742 473.552 821.398 472.528 819.542 471.824C817.75 471.056 815.158 470.384 811.766 469.808L809.462 469.424C804.022 468.528 799.798 466.8 796.79 464.24C793.782 461.616 792.278 458.096 792.278 453.68C792.278 449.008 793.814 445.392 796.886 442.832C799.958 440.208 804.086 438.896 809.27 438.896C812.214 438.896 814.87 439.408 817.238 440.432C819.67 441.392 821.622 442.8 823.094 444.656V439.952H829.238V455.216H823.574C822.358 448.048 817.718 444.464 809.654 444.464C806.39 444.464 803.83 445.232 801.974 446.768C800.182 448.304 799.286 450.352 799.286 452.912C799.286 455.6 800.246 457.712 802.166 459.248C804.086 460.72 806.998 461.808 810.902 462.512L813.11 462.896Z" fill="#4529EC"/>
<rect x="991" y="269" width="374" height="280" rx="41" fill="#1D1F1C"/>
<circle cx="1209" cy="450" r="7" fill="#F1F500"/>
<path d="M1168.83 342.636L1150.06 318.407L1140.65 342.636H1168.83Z" fill="#F4900C"/>
<path d="M1178.34 313.142L1161.75 344.803H1194.93L1178.34 313.142Z" fill="#F4900C"/>
<path d="M1188.17 342.636L1206.94 318.407L1216.35 342.636H1188.17Z" fill="#F4900C"/>
<path d="M1205.47 337.819L1193.38 308.003L1178.52 337.821L1178.5 337.829L1178.48 337.819L1163.62 308.001L1151.53 337.819C1143.61 326.684 1136.24 319.552 1136.24 319.552C1136.24 319.552 1140.58 352.028 1140.58 383.333H1216.42C1216.42 352.028 1220.76 319.552 1220.76 319.552C1220.76 319.552 1213.39 326.684 1205.47 337.819V337.819Z" fill="#FFCC4D"/>
<path d="M1178.39 364.647C1183.54 364.647 1187.71 360.427 1187.71 355.222C1187.71 350.017 1183.54 345.797 1178.39 345.797C1173.24 345.797 1169.07 350.017 1169.07 355.222C1169.07 360.427 1173.24 364.647 1178.39 364.647Z" fill="#5C913B"/>
<path d="M1199.89 361.386C1203.26 361.386 1205.99 358.627 1205.99 355.222C1205.99 351.818 1203.26 349.058 1199.89 349.058C1196.53 349.058 1193.8 351.818 1193.8 355.222C1193.8 358.627 1196.53 361.386 1199.89 361.386Z" fill="#981CEB"/>
<path d="M1216.04 360.298C1218.82 360.298 1221.06 358.025 1221.06 355.222C1221.06 352.419 1218.82 350.147 1216.04 350.147C1213.27 350.147 1211.02 352.419 1211.02 355.222C1211.02 358.025 1213.27 360.298 1216.04 360.298Z" fill="#DD2E44"/>
<path d="M1156.89 361.386C1160.25 361.386 1162.98 358.627 1162.98 355.222C1162.98 351.818 1160.25 349.058 1156.89 349.058C1153.52 349.058 1150.79 351.818 1150.79 355.222C1150.79 358.627 1153.52 361.386 1156.89 361.386Z" fill="#981CEB"/>
<path d="M1140.74 360.298C1143.51 360.298 1145.76 358.025 1145.76 355.222C1145.76 352.419 1143.51 350.147 1140.74 350.147C1137.96 350.147 1135.72 352.419 1135.72 355.222C1135.72 358.025 1137.96 360.298 1140.74 360.298Z" fill="#DD2E44"/>
<path d="M1216.42 385.889H1140.58C1139.91 385.889 1139.27 385.62 1138.8 385.14C1138.32 384.661 1138.06 384.011 1138.06 383.333C1138.06 382.656 1138.32 382.006 1138.8 381.526C1139.27 381.047 1139.91 380.778 1140.58 380.778H1216.42C1217.09 380.778 1217.73 381.047 1218.2 381.526C1218.68 382.006 1218.94 382.656 1218.94 383.333C1218.94 384.011 1218.68 384.661 1218.2 385.14C1217.73 385.62 1217.09 385.889 1216.42 385.889ZM1216.42 376.98H1140.58C1139.91 376.98 1139.27 376.711 1138.8 376.232C1138.32 375.752 1138.06 375.102 1138.06 374.425C1138.06 373.747 1138.32 373.097 1138.8 372.618C1139.27 372.138 1139.91 371.869 1140.58 371.869H1216.42C1217.09 371.869 1217.73 372.138 1218.2 372.618C1218.68 373.097 1218.94 373.747 1218.94 374.425C1218.94 375.102 1218.68 375.752 1218.2 376.232C1217.73 376.711 1217.09 376.98 1216.42 376.98Z" fill="#FFAC33"/>
<path d="M1136.66 323.147C1138.62 323.147 1140.21 321.538 1140.21 319.552C1140.21 317.566 1138.62 315.956 1136.66 315.956C1134.69 315.956 1133.1 317.566 1133.1 319.552C1133.1 321.538 1134.69 323.147 1136.66 323.147Z" fill="#FFCC4D"/>
<path d="M1150.06 321.453C1151.73 321.453 1153.08 320.089 1153.08 318.407C1153.08 316.725 1151.73 315.361 1150.06 315.361C1148.4 315.361 1147.05 316.725 1147.05 318.407C1147.05 320.089 1148.4 321.453 1150.06 321.453Z" fill="#F4900C"/>
<path d="M1163.62 312.562C1166.11 312.562 1168.13 310.521 1168.13 308.003C1168.13 305.485 1166.11 303.444 1163.62 303.444C1161.13 303.444 1159.11 305.485 1159.11 308.003C1159.11 310.521 1161.13 312.562 1163.62 312.562Z" fill="#FFCC4D"/>
<path d="M1220.34 323.147C1222.31 323.147 1223.9 321.538 1223.9 319.552C1223.9 317.566 1222.31 315.956 1220.34 315.956C1218.38 315.956 1216.79 317.566 1216.79 319.552C1216.79 321.538 1218.38 323.147 1220.34 323.147Z" fill="#FFCC4D"/>
<path d="M1206.94 321.453C1208.6 321.453 1209.95 320.089 1209.95 318.407C1209.95 316.725 1208.6 315.361 1206.94 315.361C1205.27 315.361 1203.92 316.725 1203.92 318.407C1203.92 320.089 1205.27 321.453 1206.94 321.453Z" fill="#F4900C"/>
<path d="M1193.38 312.562C1195.87 312.562 1197.89 310.521 1197.89 308.003C1197.89 305.485 1195.87 303.444 1193.38 303.444C1190.89 303.444 1188.87 305.485 1188.87 308.003C1188.87 310.521 1190.89 312.562 1193.38 312.562Z" fill="#FFCC4D"/>
<path d="M1178.34 317.702C1180.83 317.702 1182.85 315.66 1182.85 313.142C1182.85 310.625 1180.83 308.583 1178.34 308.583C1175.85 308.583 1173.83 310.625 1173.83 313.142C1173.83 315.66 1175.85 317.702 1178.34 317.702Z" fill="#F4900C"/>
<path d="M1138.49 482.368H1149.72V416.56H1138.49V408.928H1172.76V416.56H1161.53V447.52L1194.94 416.56H1185.72V408.928H1219.28V416.56H1208.62L1173.48 449.104L1209.2 482.368H1220V490H1185.29V482.368H1194.8L1161.53 451.552V482.368H1172.76V490H1138.49V482.368Z" fill="white"/>
</g>
<defs>
<clipPath id="clip0_4:2">
<rect width="1440" height="800" fill="white"/>
</clipPath>
</defs>
</svg>
