<svg width="1440" height="800" viewBox="0 0 1440 800" fill="none" xmlns="http://www.w3.org/2000/svg">
<rect width="1440" height="800" fill="#3EAB0B"/>
<path d="M590.436 715C589.908 715 589.464 714.82 589.104 714.46C588.768 714.1 588.6 713.656 588.6 713.128V688.756C588.6 688.228 588.78 687.784 589.14 687.424C589.5 687.064 589.932 686.884 590.436 686.884C590.964 686.884 591.408 687.064 591.768 687.424C592.128 687.784 592.308 688.228 592.308 688.756V711.256H605.34C605.868 711.256 606.312 711.436 606.672 711.796C607.032 712.156 607.212 712.6 607.212 713.128C607.212 713.656 607.032 714.1 606.672 714.46C606.312 714.82 605.868 715 605.34 715H590.436ZM619.546 715.144C617.794 715.144 616.222 714.712 614.83 713.848C613.438 712.96 612.334 711.772 611.518 710.284C610.726 708.772 610.33 707.068 610.33 705.172C610.33 703.276 610.762 701.572 611.626 700.06C612.514 698.548 613.702 697.36 615.19 696.496C616.702 695.608 618.394 695.164 620.266 695.164C622.138 695.164 623.818 695.608 625.306 696.496C626.794 697.36 627.97 698.548 628.834 700.06C629.722 701.572 630.166 703.276 630.166 705.172V713.2C630.166 713.728 629.986 714.172 629.626 714.532C629.29 714.868 628.858 715.036 628.33 715.036C627.802 715.036 627.358 714.868 626.998 714.532C626.662 714.172 626.494 713.728 626.494 713.2V711.868C625.654 712.876 624.634 713.68 623.434 714.28C622.258 714.856 620.962 715.144 619.546 715.144ZM620.266 711.904C621.49 711.904 622.582 711.616 623.542 711.04C624.502 710.44 625.258 709.636 625.81 708.628C626.362 707.596 626.638 706.444 626.638 705.172C626.638 703.876 626.362 702.724 625.81 701.716C625.258 700.684 624.502 699.88 623.542 699.304C622.582 698.704 621.49 698.404 620.266 698.404C619.066 698.404 617.974 698.704 616.99 699.304C616.03 699.88 615.262 700.684 614.686 701.716C614.134 702.724 613.858 703.876 613.858 705.172C613.858 706.444 614.134 707.596 614.686 708.628C615.262 709.636 616.03 710.44 616.99 711.04C617.974 711.616 619.066 711.904 620.266 711.904ZM647.978 715C646.778 715 646.178 714.4 646.178 713.2V697.108C646.178 695.908 646.778 695.308 647.978 695.308C649.178 695.308 649.778 695.908 649.778 697.108V697.792C650.498 696.952 651.374 696.292 652.406 695.812C653.462 695.332 654.602 695.092 655.826 695.092C657.266 695.092 658.334 695.332 659.03 695.812C659.75 696.268 660.026 696.82 659.858 697.468C659.738 697.972 659.498 698.308 659.138 698.476C658.778 698.62 658.358 698.644 657.878 698.548C656.342 698.236 654.962 698.212 653.738 698.476C652.514 698.74 651.542 699.232 650.822 699.952C650.126 700.672 649.778 701.584 649.778 702.688V713.2C649.778 714.4 649.178 715 647.978 715ZM671.172 715.144C669.228 715.144 667.512 714.724 666.024 713.884C664.536 713.02 663.36 711.844 662.496 710.356C661.656 708.844 661.236 707.116 661.236 705.172C661.236 703.204 661.656 701.476 662.496 699.988C663.36 698.476 664.536 697.3 666.024 696.46C667.512 695.596 669.228 695.164 671.172 695.164C673.092 695.164 674.796 695.596 676.284 696.46C677.772 697.3 678.936 698.476 679.776 699.988C680.64 701.476 681.072 703.204 681.072 705.172C681.072 707.116 680.652 708.844 679.812 710.356C678.972 711.844 677.808 713.02 676.32 713.884C674.832 714.724 673.116 715.144 671.172 715.144ZM671.172 711.904C672.42 711.904 673.524 711.616 674.484 711.04C675.444 710.464 676.188 709.672 676.716 708.664C677.268 707.656 677.544 706.492 677.544 705.172C677.544 703.852 677.268 702.688 676.716 701.68C676.188 700.648 675.444 699.844 674.484 699.268C673.524 698.692 672.42 698.404 671.172 698.404C669.924 698.404 668.82 698.692 667.86 699.268C666.9 699.844 666.144 700.648 665.592 701.68C665.04 702.688 664.764 703.852 664.764 705.172C664.764 706.492 665.04 707.656 665.592 708.664C666.144 709.672 666.9 710.464 667.86 711.04C668.82 711.616 669.924 711.904 671.172 711.904ZM694.817 715.18C693.161 715.18 691.673 714.832 690.353 714.136C689.057 713.416 688.025 712.372 687.257 711.004C686.513 709.636 686.141 707.956 686.141 705.964V697.108C686.141 696.58 686.309 696.148 686.645 695.812C687.005 695.452 687.449 695.272 687.977 695.272C688.505 695.272 688.937 695.452 689.273 695.812C689.633 696.148 689.813 696.58 689.813 697.108V705.964C689.813 708.004 690.353 709.504 691.433 710.464C692.537 711.4 693.905 711.868 695.537 711.868C696.569 711.868 697.481 711.664 698.273 711.256C699.089 710.848 699.737 710.296 700.217 709.6C700.697 708.904 700.937 708.124 700.937 707.26V697.108C700.937 696.556 701.105 696.112 701.441 695.776C701.801 695.44 702.245 695.272 702.773 695.272C703.325 695.272 703.769 695.44 704.105 695.776C704.441 696.112 704.609 696.556 704.609 697.108V713.164C704.609 713.692 704.441 714.136 704.105 714.496C703.769 714.832 703.325 715 702.773 715C702.245 715 701.801 714.832 701.441 714.496C701.105 714.136 700.937 713.692 700.937 713.164V712.768C700.193 713.512 699.293 714.1 698.237 714.532C697.181 714.964 696.041 715.18 694.817 715.18ZM720.328 715.144C718.336 715.144 716.56 714.724 715 713.884C713.464 713.02 712.252 711.844 711.364 710.356C710.5 708.844 710.068 707.116 710.068 705.172C710.068 703.204 710.476 701.476 711.292 699.988C712.132 698.476 713.284 697.3 714.748 696.46C716.212 695.596 717.892 695.164 719.788 695.164C721.66 695.164 723.268 695.584 724.612 696.424C725.956 697.24 726.976 698.38 727.672 699.844C728.392 701.284 728.752 702.952 728.752 704.848C728.752 705.304 728.596 705.688 728.284 706C727.972 706.288 727.576 706.432 727.096 706.432H713.416C713.68 708.088 714.436 709.444 715.684 710.5C716.956 711.532 718.504 712.048 720.328 712.048C721.072 712.048 721.828 711.916 722.596 711.652C723.388 711.364 724.024 711.04 724.504 710.68C724.864 710.416 725.248 710.284 725.656 710.284C726.088 710.26 726.46 710.38 726.772 710.644C727.18 711.004 727.396 711.4 727.42 711.832C727.444 712.264 727.252 712.636 726.844 712.948C726.028 713.596 725.008 714.124 723.784 714.532C722.584 714.94 721.432 715.144 720.328 715.144ZM719.788 698.26C718.012 698.26 716.584 698.752 715.504 699.736C714.424 700.72 713.74 701.992 713.452 703.552H725.44C725.224 702.016 724.636 700.756 723.676 699.772C722.716 698.764 721.42 698.26 719.788 698.26ZM746.106 715C745.65 715 745.242 714.832 744.882 714.496C744.522 714.16 744.342 713.716 744.342 713.164V699.124H742.794C742.29 699.124 741.882 698.98 741.57 698.692C741.258 698.404 741.102 698.044 741.102 697.612C741.102 697.132 741.258 696.748 741.57 696.46C741.882 696.172 742.29 696.028 742.794 696.028H744.342V695.416C744.342 693.688 744.678 692.188 745.35 690.916C746.046 689.644 747.006 688.66 748.23 687.964C749.454 687.244 750.87 686.884 752.478 686.884C753.006 686.884 753.438 687.04 753.774 687.352C754.134 687.664 754.314 688.06 754.314 688.54C754.314 688.996 754.134 689.392 753.774 689.728C753.438 690.04 753.006 690.196 752.478 690.196C751.134 690.196 750.054 690.64 749.238 691.528C748.422 692.416 748.014 693.592 748.014 695.056V696.028H751.686C752.19 696.028 752.598 696.172 752.91 696.46C753.222 696.748 753.378 697.132 753.378 697.612C753.378 698.044 753.222 698.404 752.91 698.692C752.598 698.98 752.19 699.124 751.686 699.124H748.014V713.164C748.014 713.716 747.846 714.16 747.51 714.496C747.174 714.832 746.706 715 746.106 715ZM765.426 715.144C763.482 715.144 761.766 714.724 760.278 713.884C758.79 713.02 757.614 711.844 756.75 710.356C755.91 708.844 755.49 707.116 755.49 705.172C755.49 703.204 755.91 701.476 756.75 699.988C757.614 698.476 758.79 697.3 760.278 696.46C761.766 695.596 763.482 695.164 765.426 695.164C767.346 695.164 769.05 695.596 770.538 696.46C772.026 697.3 773.19 698.476 774.03 699.988C774.894 701.476 775.326 703.204 775.326 705.172C775.326 707.116 774.906 708.844 774.066 710.356C773.226 711.844 772.062 713.02 770.574 713.884C769.086 714.724 767.37 715.144 765.426 715.144ZM765.426 711.904C766.674 711.904 767.778 711.616 768.738 711.04C769.698 710.464 770.442 709.672 770.97 708.664C771.522 707.656 771.798 706.492 771.798 705.172C771.798 703.852 771.522 702.688 770.97 701.68C770.442 700.648 769.698 699.844 768.738 699.268C767.778 698.692 766.674 698.404 765.426 698.404C764.178 698.404 763.074 698.692 762.114 699.268C761.154 699.844 760.398 700.648 759.846 701.68C759.294 702.688 759.018 703.852 759.018 705.172C759.018 706.492 759.294 707.656 759.846 708.664C760.398 709.672 761.154 710.464 762.114 711.04C763.074 711.616 764.178 711.904 765.426 711.904ZM782.591 715C781.391 715 780.791 714.4 780.791 713.2V697.108C780.791 695.908 781.391 695.308 782.591 695.308C783.791 695.308 784.391 695.908 784.391 697.108V697.792C785.111 696.952 785.987 696.292 787.019 695.812C788.075 695.332 789.215 695.092 790.439 695.092C791.879 695.092 792.947 695.332 793.643 695.812C794.363 696.268 794.639 696.82 794.471 697.468C794.351 697.972 794.111 698.308 793.751 698.476C793.391 698.62 792.971 698.644 792.491 698.548C790.955 698.236 789.575 698.212 788.351 698.476C787.127 698.74 786.155 699.232 785.435 699.952C784.739 700.672 784.391 701.584 784.391 702.688V713.2C784.391 714.4 783.791 715 782.591 715ZM805.463 715C804.263 715 803.183 714.7 802.223 714.1C801.263 713.476 800.507 712.636 799.955 711.58C799.403 710.524 799.127 709.336 799.127 708.016V699.124H797.471C796.967 699.124 796.559 698.98 796.247 698.692C795.935 698.404 795.779 698.044 795.779 697.612C795.779 697.132 795.935 696.748 796.247 696.46C796.559 696.172 796.967 696.028 797.471 696.028H799.127V690.844C799.127 690.316 799.295 689.884 799.631 689.548C799.967 689.212 800.399 689.044 800.927 689.044C801.455 689.044 801.887 689.212 802.223 689.548C802.559 689.884 802.727 690.316 802.727 690.844V696.028H805.787C806.291 696.028 806.699 696.172 807.011 696.46C807.323 696.748 807.479 697.132 807.479 697.612C807.479 698.044 807.323 698.404 807.011 698.692C806.699 698.98 806.291 699.124 805.787 699.124H802.727V708.016C802.727 708.976 802.991 709.78 803.519 710.428C804.047 711.076 804.695 711.4 805.463 711.4H806.687C807.119 711.4 807.479 711.568 807.767 711.904C808.079 712.24 808.235 712.672 808.235 713.2C808.235 713.728 808.031 714.16 807.623 714.496C807.239 714.832 806.735 715 806.111 715H805.463ZM821.028 715.18C819.372 715.18 817.884 714.832 816.564 714.136C815.268 713.416 814.236 712.372 813.468 711.004C812.724 709.636 812.352 707.956 812.352 705.964V697.108C812.352 696.58 812.52 696.148 812.856 695.812C813.216 695.452 813.66 695.272 814.188 695.272C814.716 695.272 815.148 695.452 815.484 695.812C815.844 696.148 816.024 696.58 816.024 697.108V705.964C816.024 708.004 816.564 709.504 817.644 710.464C818.748 711.4 820.116 711.868 821.748 711.868C822.78 711.868 823.692 711.664 824.484 711.256C825.3 710.848 825.948 710.296 826.428 709.6C826.908 708.904 827.148 708.124 827.148 707.26V697.108C827.148 696.556 827.316 696.112 827.652 695.776C828.012 695.44 828.456 695.272 828.984 695.272C829.536 695.272 829.98 695.44 830.316 695.776C830.652 696.112 830.82 696.556 830.82 697.108V713.164C830.82 713.692 830.652 714.136 830.316 714.496C829.98 714.832 829.536 715 828.984 715C828.456 715 828.012 714.832 827.652 714.496C827.316 714.136 827.148 713.692 827.148 713.164V712.768C826.404 713.512 825.504 714.1 824.448 714.532C823.392 714.964 822.252 715.18 821.028 715.18ZM839.123 715.036C838.595 715.036 838.151 714.868 837.791 714.532C837.455 714.172 837.287 713.728 837.287 713.2V697.144C837.287 696.592 837.455 696.148 837.791 695.812C838.151 695.476 838.595 695.308 839.123 695.308C839.675 695.308 840.119 695.476 840.455 695.812C840.791 696.148 840.959 696.592 840.959 697.144V697.54C841.703 696.796 842.603 696.208 843.659 695.776C844.715 695.344 845.855 695.128 847.079 695.128C848.735 695.128 850.211 695.488 851.507 696.208C852.827 696.904 853.859 697.936 854.603 699.304C855.371 700.672 855.755 702.352 855.755 704.344V713.2C855.755 713.728 855.575 714.172 855.215 714.532C854.879 714.868 854.447 715.036 853.919 715.036C853.391 715.036 852.947 714.868 852.587 714.532C852.251 714.172 852.083 713.728 852.083 713.2V704.344C852.083 702.304 851.531 700.816 850.427 699.88C849.347 698.92 847.991 698.44 846.359 698.44C845.351 698.44 844.439 698.644 843.623 699.052C842.807 699.46 842.159 700.012 841.679 700.708C841.199 701.38 840.959 702.16 840.959 703.048V713.2C840.959 713.728 840.791 714.172 840.455 714.532C840.119 714.868 839.675 715.036 839.123 715.036ZM871.078 715.144C869.086 715.144 867.31 714.724 865.75 713.884C864.214 713.02 863.002 711.844 862.114 710.356C861.25 708.844 860.818 707.116 860.818 705.172C860.818 703.204 861.226 701.476 862.042 699.988C862.882 698.476 864.034 697.3 865.498 696.46C866.962 695.596 868.642 695.164 870.538 695.164C872.41 695.164 874.018 695.584 875.362 696.424C876.706 697.24 877.726 698.38 878.422 699.844C879.142 701.284 879.502 702.952 879.502 704.848C879.502 705.304 879.346 705.688 879.034 706C878.722 706.288 878.326 706.432 877.846 706.432H864.166C864.43 708.088 865.186 709.444 866.434 710.5C867.706 711.532 869.254 712.048 871.078 712.048C871.822 712.048 872.578 711.916 873.346 711.652C874.138 711.364 874.774 711.04 875.254 710.68C875.614 710.416 875.998 710.284 876.406 710.284C876.838 710.26 877.21 710.38 877.522 710.644C877.93 711.004 878.146 711.4 878.17 711.832C878.194 712.264 878.002 712.636 877.594 712.948C876.778 713.596 875.758 714.124 874.534 714.532C873.334 714.94 872.182 715.144 871.078 715.144ZM870.538 698.26C868.762 698.26 867.334 698.752 866.254 699.736C865.174 700.72 864.49 701.992 864.202 703.552H876.19C875.974 702.016 875.386 700.756 874.426 699.772C873.466 698.764 872.17 698.26 870.538 698.26Z" fill="black"/>
<path d="M1043.44 715C1042.91 715 1042.46 714.82 1042.1 714.46C1041.77 714.1 1041.6 713.656 1041.6 713.128V688.756C1041.6 688.228 1041.78 687.784 1042.14 687.424C1042.5 687.064 1042.93 686.884 1043.44 686.884C1043.96 686.884 1044.41 687.064 1044.77 687.424C1045.13 687.784 1045.31 688.228 1045.31 688.756V711.256H1058.34C1058.87 711.256 1059.31 711.436 1059.67 711.796C1060.03 712.156 1060.21 712.6 1060.21 713.128C1060.21 713.656 1060.03 714.1 1059.67 714.46C1059.31 714.82 1058.87 715 1058.34 715H1043.44ZM1072.55 715.144C1070.79 715.144 1069.22 714.712 1067.83 713.848C1066.44 712.96 1065.33 711.772 1064.52 710.284C1063.73 708.772 1063.33 707.068 1063.33 705.172C1063.33 703.276 1063.76 701.572 1064.63 700.06C1065.51 698.548 1066.7 697.36 1068.19 696.496C1069.7 695.608 1071.39 695.164 1073.27 695.164C1075.14 695.164 1076.82 695.608 1078.31 696.496C1079.79 697.36 1080.97 698.548 1081.83 700.06C1082.72 701.572 1083.17 703.276 1083.17 705.172V713.2C1083.17 713.728 1082.99 714.172 1082.63 714.532C1082.29 714.868 1081.86 715.036 1081.33 715.036C1080.8 715.036 1080.36 714.868 1080 714.532C1079.66 714.172 1079.49 713.728 1079.49 713.2V711.868C1078.65 712.876 1077.63 713.68 1076.43 714.28C1075.26 714.856 1073.96 715.144 1072.55 715.144ZM1073.27 711.904C1074.49 711.904 1075.58 711.616 1076.54 711.04C1077.5 710.44 1078.26 709.636 1078.81 708.628C1079.36 707.596 1079.64 706.444 1079.64 705.172C1079.64 703.876 1079.36 702.724 1078.81 701.716C1078.26 700.684 1077.5 699.88 1076.54 699.304C1075.58 698.704 1074.49 698.404 1073.27 698.404C1072.07 698.404 1070.97 698.704 1069.99 699.304C1069.03 699.88 1068.26 700.684 1067.69 701.716C1067.13 702.724 1066.86 703.876 1066.86 705.172C1066.86 706.444 1067.13 707.596 1067.69 708.628C1068.26 709.636 1069.03 710.44 1069.99 711.04C1070.97 711.616 1072.07 711.904 1073.27 711.904ZM1108.11 715.144C1106.19 715.144 1104.47 714.712 1102.96 713.848C1101.47 712.96 1100.29 711.772 1099.43 710.284C1098.59 708.772 1098.17 707.068 1098.17 705.172C1098.17 703.228 1098.59 701.5 1099.43 699.988C1100.27 698.476 1101.42 697.3 1102.89 696.46C1104.35 695.596 1106.03 695.164 1107.93 695.164C1110.76 695.164 1113.11 696.244 1114.98 698.404C1115.32 698.788 1115.44 699.184 1115.34 699.592C1115.25 700 1114.98 700.36 1114.55 700.672C1114.21 700.912 1113.84 700.996 1113.43 700.924C1113.03 700.828 1112.65 700.612 1112.32 700.276C1111.14 699.028 1109.68 698.404 1107.93 698.404C1106.08 698.404 1104.58 699.028 1103.43 700.276C1102.27 701.5 1101.7 703.132 1101.7 705.172C1101.7 706.468 1101.96 707.62 1102.49 708.628C1103.04 709.636 1103.8 710.44 1104.76 711.04C1105.72 711.616 1106.83 711.904 1108.11 711.904C1109.74 711.904 1111.06 711.484 1112.07 710.644C1112.45 710.332 1112.85 710.164 1113.25 710.14C1113.66 710.092 1114.02 710.2 1114.33 710.464C1114.74 710.8 1114.97 711.184 1115.02 711.616C1115.07 712.024 1114.92 712.396 1114.59 712.732C1112.86 714.34 1110.7 715.144 1108.11 715.144ZM1129.73 715.144C1127.78 715.144 1126.07 714.724 1124.58 713.884C1123.09 713.02 1121.91 711.844 1121.05 710.356C1120.21 708.844 1119.79 707.116 1119.79 705.172C1119.79 703.204 1120.21 701.476 1121.05 699.988C1121.91 698.476 1123.09 697.3 1124.58 696.46C1126.07 695.596 1127.78 695.164 1129.73 695.164C1131.65 695.164 1133.35 695.596 1134.84 696.46C1136.33 697.3 1137.49 698.476 1138.33 699.988C1139.19 701.476 1139.63 703.204 1139.63 705.172C1139.63 707.116 1139.21 708.844 1138.37 710.356C1137.53 711.844 1136.36 713.02 1134.87 713.884C1133.39 714.724 1131.67 715.144 1129.73 715.144ZM1129.73 711.904C1130.97 711.904 1132.08 711.616 1133.04 711.04C1134 710.464 1134.74 709.672 1135.27 708.664C1135.82 707.656 1136.1 706.492 1136.1 705.172C1136.1 703.852 1135.82 702.688 1135.27 701.68C1134.74 700.648 1134 699.844 1133.04 699.268C1132.08 698.692 1130.97 698.404 1129.73 698.404C1128.48 698.404 1127.37 698.692 1126.41 699.268C1125.45 699.844 1124.7 700.648 1124.15 701.68C1123.59 702.688 1123.32 703.852 1123.32 705.172C1123.32 706.492 1123.59 707.656 1124.15 708.664C1124.7 709.672 1125.45 710.464 1126.41 711.04C1127.37 711.616 1128.48 711.904 1129.73 711.904ZM1154.02 715.144C1152.1 715.144 1150.38 714.712 1148.87 713.848C1147.38 712.96 1146.21 711.772 1145.34 710.284C1144.5 708.772 1144.08 707.068 1144.08 705.172C1144.08 703.228 1144.5 701.5 1145.34 699.988C1146.18 698.476 1147.34 697.3 1148.8 696.46C1150.26 695.596 1151.94 695.164 1153.84 695.164C1156.67 695.164 1159.02 696.244 1160.9 698.404C1161.23 698.788 1161.35 699.184 1161.26 699.592C1161.16 700 1160.9 700.36 1160.46 700.672C1160.13 700.912 1159.76 700.996 1159.35 700.924C1158.94 700.828 1158.57 700.612 1158.23 700.276C1157.06 699.028 1155.59 698.404 1153.84 698.404C1151.99 698.404 1150.49 699.028 1149.34 700.276C1148.19 701.5 1147.61 703.132 1147.61 705.172C1147.61 706.468 1147.88 707.62 1148.4 708.628C1148.96 709.636 1149.71 710.44 1150.67 711.04C1151.63 711.616 1152.75 711.904 1154.02 711.904C1155.65 711.904 1156.97 711.484 1157.98 710.644C1158.36 710.332 1158.76 710.164 1159.17 710.14C1159.58 710.092 1159.94 710.2 1160.25 710.464C1160.66 710.8 1160.88 711.184 1160.93 711.616C1160.98 712.024 1160.84 712.396 1160.5 712.732C1158.77 714.34 1156.61 715.144 1154.02 715.144ZM1175.64 715.144C1173.72 715.144 1172 714.712 1170.49 713.848C1169 712.96 1167.83 711.772 1166.96 710.284C1166.12 708.772 1165.7 707.068 1165.7 705.172C1165.7 703.228 1166.12 701.5 1166.96 699.988C1167.8 698.476 1168.96 697.3 1170.42 696.46C1171.88 695.596 1173.56 695.164 1175.46 695.164C1178.29 695.164 1180.64 696.244 1182.52 698.404C1182.85 698.788 1182.97 699.184 1182.88 699.592C1182.78 700 1182.52 700.36 1182.08 700.672C1181.75 700.912 1181.38 700.996 1180.97 700.924C1180.56 700.828 1180.19 700.612 1179.85 700.276C1178.68 699.028 1177.21 698.404 1175.46 698.404C1173.61 698.404 1172.11 699.028 1170.96 700.276C1169.81 701.5 1169.23 703.132 1169.23 705.172C1169.23 706.468 1169.5 707.62 1170.02 708.628C1170.58 709.636 1171.33 710.44 1172.29 711.04C1173.25 711.616 1174.37 711.904 1175.64 711.904C1177.27 711.904 1178.59 711.484 1179.6 710.644C1179.98 710.332 1180.38 710.164 1180.79 710.14C1181.2 710.092 1181.56 710.2 1181.87 710.464C1182.28 710.8 1182.5 711.184 1182.55 711.616C1182.6 712.024 1182.46 712.396 1182.12 712.732C1180.39 714.34 1178.23 715.144 1175.64 715.144ZM1190.53 715C1190 715 1189.56 714.832 1189.2 714.496C1188.86 714.136 1188.69 713.692 1188.69 713.164V697.144C1188.69 696.592 1188.86 696.148 1189.2 695.812C1189.56 695.476 1190 695.308 1190.53 695.308C1191.08 695.308 1191.53 695.476 1191.86 695.812C1192.2 696.148 1192.37 696.592 1192.37 697.144V713.164C1192.37 713.692 1192.2 714.136 1191.86 714.496C1191.53 714.832 1191.08 715 1190.53 715ZM1190.53 692.104C1189.88 692.104 1189.32 691.876 1188.84 691.42C1188.38 690.94 1188.15 690.376 1188.15 689.728C1188.15 689.08 1188.38 688.528 1188.84 688.072C1189.32 687.592 1189.88 687.352 1190.53 687.352C1191.18 687.352 1191.73 687.592 1192.19 688.072C1192.67 688.528 1192.91 689.08 1192.91 689.728C1192.91 690.376 1192.67 690.94 1192.19 691.42C1191.73 691.876 1191.18 692.104 1190.53 692.104ZM1201.03 715.036C1200.51 715.036 1200.06 714.868 1199.7 714.532C1199.37 714.172 1199.2 713.728 1199.2 713.2V697.144C1199.2 696.592 1199.37 696.148 1199.7 695.812C1200.06 695.476 1200.51 695.308 1201.03 695.308C1201.59 695.308 1202.03 695.476 1202.37 695.812C1202.7 696.148 1202.87 696.592 1202.87 697.144V697.54C1203.61 696.796 1204.51 696.208 1205.57 695.776C1206.63 695.344 1207.77 695.128 1208.99 695.128C1210.65 695.128 1212.12 695.488 1213.42 696.208C1214.74 696.904 1215.77 697.936 1216.51 699.304C1217.28 700.672 1217.67 702.352 1217.67 704.344V713.2C1217.67 713.728 1217.49 714.172 1217.13 714.532C1216.79 714.868 1216.36 715.036 1215.83 715.036C1215.3 715.036 1214.86 714.868 1214.5 714.532C1214.16 714.172 1213.99 713.728 1213.99 713.2V704.344C1213.99 702.304 1213.44 700.816 1212.34 699.88C1211.26 698.92 1209.9 698.44 1208.27 698.44C1207.26 698.44 1206.35 698.644 1205.53 699.052C1204.72 699.46 1204.07 700.012 1203.59 700.708C1203.11 701.38 1202.87 702.16 1202.87 703.048V713.2C1202.87 713.728 1202.7 714.172 1202.37 714.532C1202.03 714.868 1201.59 715.036 1201.03 715.036ZM1232.99 715.144C1231 715.144 1229.22 714.724 1227.66 713.884C1226.12 713.02 1224.91 711.844 1224.02 710.356C1223.16 708.844 1222.73 707.116 1222.73 705.172C1222.73 703.204 1223.14 701.476 1223.95 699.988C1224.79 698.476 1225.94 697.3 1227.41 696.46C1228.87 695.596 1230.55 695.164 1232.45 695.164C1234.32 695.164 1235.93 695.584 1237.27 696.424C1238.62 697.24 1239.64 698.38 1240.33 699.844C1241.05 701.284 1241.41 702.952 1241.41 704.848C1241.41 705.304 1241.26 705.688 1240.94 706C1240.63 706.288 1240.24 706.432 1239.76 706.432H1226.08C1226.34 708.088 1227.1 709.444 1228.34 710.5C1229.62 711.532 1231.16 712.048 1232.99 712.048C1233.73 712.048 1234.49 711.916 1235.26 711.652C1236.05 711.364 1236.68 711.04 1237.16 710.68C1237.52 710.416 1237.91 710.284 1238.32 710.284C1238.75 710.26 1239.12 710.38 1239.43 710.644C1239.84 711.004 1240.06 711.4 1240.08 711.832C1240.1 712.264 1239.91 712.636 1239.5 712.948C1238.69 713.596 1237.67 714.124 1236.44 714.532C1235.24 714.94 1234.09 715.144 1232.99 715.144ZM1232.45 698.26C1230.67 698.26 1229.24 698.752 1228.16 699.736C1227.08 700.72 1226.4 701.992 1226.11 703.552H1238.1C1237.88 702.016 1237.3 700.756 1236.34 699.772C1235.38 698.764 1234.08 698.26 1232.45 698.26ZM1250.78 715C1249.72 715 1248.78 714.712 1247.97 714.136C1247.15 713.56 1246.52 712.78 1246.06 711.796C1245.6 710.788 1245.38 709.636 1245.38 708.34V688.684C1245.38 688.156 1245.54 687.724 1245.88 687.388C1246.22 687.052 1246.65 686.884 1247.18 686.884C1247.7 686.884 1248.14 687.052 1248.47 687.388C1248.81 687.724 1248.98 688.156 1248.98 688.684V708.34C1248.98 709.228 1249.14 709.96 1249.48 710.536C1249.82 711.112 1250.25 711.4 1250.78 711.4H1251.68C1252.16 711.4 1252.54 711.568 1252.83 711.904C1253.14 712.24 1253.3 712.672 1253.3 713.2C1253.3 713.728 1253.07 714.16 1252.61 714.496C1252.16 714.832 1251.57 715 1250.85 715H1250.78ZM1261.57 715C1260.51 715 1259.58 714.712 1258.76 714.136C1257.94 713.56 1257.31 712.78 1256.85 711.796C1256.4 710.788 1256.17 709.636 1256.17 708.34V688.684C1256.17 688.156 1256.34 687.724 1256.67 687.388C1257.01 687.052 1257.44 686.884 1257.97 686.884C1258.5 686.884 1258.93 687.052 1259.26 687.388C1259.6 687.724 1259.77 688.156 1259.77 688.684V708.34C1259.77 709.228 1259.94 709.96 1260.27 710.536C1260.61 711.112 1261.04 711.4 1261.57 711.4H1262.47C1262.95 711.4 1263.33 711.568 1263.62 711.904C1263.93 712.24 1264.09 712.672 1264.09 713.2C1264.09 713.728 1263.86 714.16 1263.4 714.496C1262.95 714.832 1262.36 715 1261.64 715H1261.57ZM1275.84 715.144C1273.85 715.144 1272.08 714.724 1270.52 713.884C1268.98 713.02 1267.77 711.844 1266.88 710.356C1266.02 708.844 1265.58 707.116 1265.58 705.172C1265.58 703.204 1265.99 701.476 1266.81 699.988C1267.65 698.476 1268.8 697.3 1270.26 696.46C1271.73 695.596 1273.41 695.164 1275.3 695.164C1277.18 695.164 1278.78 695.584 1280.13 696.424C1281.47 697.24 1282.49 698.38 1283.19 699.844C1283.91 701.284 1284.27 702.952 1284.27 704.848C1284.27 705.304 1284.11 705.688 1283.8 706C1283.49 706.288 1283.09 706.432 1282.61 706.432H1268.93C1269.2 708.088 1269.95 709.444 1271.2 710.5C1272.47 711.532 1274.02 712.048 1275.84 712.048C1276.59 712.048 1277.34 711.916 1278.11 711.652C1278.9 711.364 1279.54 711.04 1280.02 710.68C1280.38 710.416 1280.76 710.284 1281.17 710.284C1281.6 710.26 1281.98 710.38 1282.29 710.644C1282.7 711.004 1282.91 711.4 1282.94 711.832C1282.96 712.264 1282.77 712.636 1282.36 712.948C1281.54 713.596 1280.52 714.124 1279.3 714.532C1278.1 714.94 1276.95 715.144 1275.84 715.144ZM1275.3 698.26C1273.53 698.26 1272.1 698.752 1271.02 699.736C1269.94 700.72 1269.26 701.992 1268.97 703.552H1280.96C1280.74 702.016 1280.15 700.756 1279.19 699.772C1278.23 698.764 1276.94 698.26 1275.3 698.26Z" fill="black"/>
<ellipse cx="271.439" cy="248.921" rx="68.3395" ry="51.938" fill="#2E282A"/>
<ellipse cx="1160.34" cy="262.921" rx="68.3395" ry="51.938" fill="black"/>
<path d="M453.701 443.005C453.701 545.354 372.331 628 272.35 628C172.37 628 91 545.354 91 443.005C91 340.656 172.37 258.01 272.35 258.01C372.331 258.01 453.701 340.656 453.701 443.005Z" fill="#46DEFF" stroke="#FF460C" stroke-width="20"/>
<path d="M1348.2 457.995C1348.2 563.818 1264.04 649.49 1160.35 649.49C1056.67 649.49 972.5 563.818 972.5 457.995C972.5 352.173 1056.67 266.5 1160.35 266.5C1264.04 266.5 1348.2 352.173 1348.2 457.995Z" fill="#FB0404" stroke="black" stroke-width="7"/>
<path d="M912.701 445.995C912.701 548.344 831.331 630.99 731.35 630.99C631.37 630.99 550 548.344 550 445.995C550 343.646 631.37 261 731.35 261C831.331 261 912.701 343.646 912.701 445.995Z" fill="white" stroke="#FF460C" stroke-width="20"/>
<ellipse cx="271.439" cy="437.537" rx="41.0037" ry="41.9149" fill="#FF460C"/>
<path d="M273.577 635.22L272.877 250.015" stroke="#FF460C" stroke-width="15"/>
<path d="M732.577 638.211L731.877 253.006" stroke="#FF460C" stroke-width="15"/>
<path d="M82.9487 433.466L461.383 433.491" stroke="#FF460C" stroke-width="15"/>
<path d="M541.949 436.457L920.383 436.481" stroke="#FF460C" stroke-width="15"/>
<path d="M138.968 306.344L412.926 571.558" stroke="#FF460C" stroke-width="15"/>
<path d="M597.968 309.335L871.926 574.548" stroke="#FF460C" stroke-width="15"/>
<path d="M404.623 306.458L129.718 568.743" stroke="#FF460C" stroke-width="15"/>
<path d="M863.623 309.448L588.718 571.733" stroke="#FF460C" stroke-width="15"/>
<circle r="57.2383" transform="matrix(-0.305652 0.952143 0.952143 0.305652 271.545 434.909)" fill="#FF460C"/>
<circle r="57.2383" transform="matrix(-0.305652 0.952143 0.952143 0.305652 732.994 445.994)" fill="#FF460C"/>
<line x1="253.874" y1="208.352" x2="221.646" y2="160.394" stroke="#2E282A" stroke-width="5"/>
<line x1="1142.77" y1="222.352" x2="1110.55" y2="174.394" stroke="black" stroke-width="5"/>
<line x1="291" y1="205.705" x2="318.76" y2="157.748" stroke="#2E282A" stroke-width="5"/>
<line x1="1179.9" y1="219.705" x2="1207.66" y2="171.748" stroke="black" stroke-width="5"/>
<circle cx="153.125" cy="385.74" r="19.135" fill="#2E282A"/>
<circle cx="388.633" cy="385.74" r="19.135" fill="#2E282A"/>
<circle cx="320.924" cy="315.087" r="19.135" fill="#2E282A"/>
<circle cx="1100" cy="354" r="25" fill="black"/>
<circle cx="1241.63" cy="553.007" r="25" transform="rotate(174.031 1241.63 553.007)" fill="black"/>
<circle cx="1104" cy="452" r="25" fill="black"/>
<circle cx="1227.46" cy="455.954" r="25" transform="rotate(174.031 1227.46 455.954)" fill="black"/>
<circle cx="1028" cy="450" r="25" fill="black"/>
<circle cx="1308.46" cy="452.464" r="25" transform="rotate(174.031 1308.46 452.464)" fill="black"/>
<circle cx="1075" cy="549" r="25" fill="black"/>
<circle cx="1218.46" cy="356.464" r="25" transform="rotate(174.031 1218.46 356.464)" fill="black"/>
<circle cx="223.777" cy="315.087" r="19.135" fill="#2E282A"/>
<circle cx="397.464" cy="482.887" r="19.135" fill="#2E282A"/>
<circle cx="326.812" cy="562.371" r="19.135" fill="#2E282A"/>
<circle cx="212.002" cy="562.371" r="19.135" fill="#2E282A"/>
<circle cx="144.293" cy="482.887" r="19.135" fill="#2E282A"/>
<ellipse cx="272.5" cy="435" rx="28.5" ry="29" fill="#2E282A"/>
<ellipse cx="732.5" cy="446" rx="28.5" ry="29" fill="#2E282A"/>
<path d="M1163.5 270.5V550M1163.5 550L1089.5 631.5M1163.5 550L1234.5 631.5" stroke="black" stroke-width="7"/>
<path d="M1074 622.846L1163.38 510L1249 622.846C1194 662.969 1109.42 639.564 1074 622.846Z" fill="black" stroke="black" stroke-width="7"/>
<path d="M500.528 106.36C498.992 106.36 497.528 106.12 496.136 105.64C494.744 105.16 493.532 104.488 492.5 103.624C491.468 102.76 490.712 101.764 490.232 100.636C489.992 100.132 489.992 99.664 490.232 99.232C490.496 98.8 490.928 98.524 491.528 98.404C491.96 98.308 492.38 98.38 492.788 98.62C493.22 98.836 493.544 99.172 493.76 99.628C494.048 100.228 494.516 100.78 495.164 101.284C495.836 101.788 496.64 102.196 497.576 102.508C498.512 102.82 499.496 102.976 500.528 102.976C501.68 102.976 502.736 102.796 503.696 102.436C504.68 102.076 505.472 101.56 506.072 100.888C506.672 100.192 506.972 99.34 506.972 98.332C506.972 97.06 506.468 95.92 505.46 94.912C504.476 93.904 502.844 93.28 500.564 93.04C497.588 92.752 495.248 91.876 493.544 90.412C491.84 88.948 490.988 87.136 490.988 84.976C490.988 83.392 491.432 82.048 492.32 80.944C493.208 79.84 494.408 79 495.92 78.424C497.456 77.848 499.16 77.56 501.032 77.56C503.216 77.56 505.004 78.004 506.396 78.892C507.788 79.78 508.94 80.956 509.852 82.42C510.188 82.948 510.32 83.452 510.248 83.932C510.2 84.388 509.972 84.748 509.564 85.012C509.108 85.3 508.616 85.36 508.088 85.192C507.56 85.024 507.164 84.712 506.9 84.256C506.3 83.224 505.52 82.42 504.56 81.844C503.624 81.268 502.412 80.968 500.924 80.944C499.148 80.92 497.66 81.256 496.46 81.952C495.26 82.624 494.66 83.668 494.66 85.084C494.66 85.804 494.84 86.5 495.2 87.172C495.584 87.82 496.268 88.384 497.252 88.864C498.26 89.344 499.7 89.68 501.572 89.872C504.428 90.16 506.648 91.036 508.232 92.5C509.84 93.94 510.644 95.848 510.644 98.224C510.644 99.592 510.356 100.78 509.78 101.788C509.228 102.796 508.472 103.648 507.512 104.344C506.576 105.016 505.496 105.52 504.272 105.856C503.072 106.192 501.824 106.36 500.528 106.36ZM519.553 114.64C519.313 114.64 519.025 114.568 518.689 114.424C517.633 113.944 517.345 113.188 517.825 112.156L521.425 104.056L513.325 88.684C513.085 88.228 513.049 87.796 513.217 87.388C513.409 86.956 513.733 86.644 514.189 86.452C514.645 86.26 515.077 86.248 515.485 86.416C515.893 86.56 516.205 86.86 516.421 87.316L523.009 100.42L528.805 87.352C529.285 86.344 530.041 86.056 531.073 86.488C532.153 86.944 532.453 87.7 531.973 88.756L520.957 113.524C520.669 114.268 520.201 114.64 519.553 114.64ZM537.267 106.036C536.739 106.036 536.295 105.868 535.935 105.532C535.599 105.172 535.431 104.728 535.431 104.2V88.18C535.431 87.628 535.599 87.184 535.935 86.848C536.295 86.512 536.739 86.344 537.267 86.344C537.819 86.344 538.263 86.512 538.599 86.848C538.935 87.184 539.103 87.604 539.103 88.108C539.727 87.484 540.471 87.004 541.335 86.668C542.199 86.308 543.135 86.128 544.143 86.128C546.663 86.128 548.559 87.076 549.831 88.972C550.527 88.084 551.415 87.388 552.495 86.884C553.575 86.38 554.787 86.128 556.131 86.128C558.195 86.128 559.875 86.8 561.171 88.144C562.467 89.488 563.115 91.408 563.115 93.904V104.2C563.115 104.728 562.947 105.172 562.611 105.532C562.275 105.868 561.831 106.036 561.279 106.036C560.751 106.036 560.307 105.868 559.947 105.532C559.611 105.172 559.443 104.728 559.443 104.2V93.904C559.443 92.392 559.071 91.276 558.327 90.556C557.583 89.812 556.611 89.44 555.411 89.44C554.163 89.44 553.131 89.872 552.315 90.736C551.523 91.6 551.127 92.704 551.127 94.048V104.2C551.127 104.728 550.959 105.172 550.623 105.532C550.287 105.868 549.843 106.036 549.291 106.036C548.763 106.036 548.319 105.868 547.959 105.532C547.623 105.172 547.455 104.728 547.455 104.2V93.904C547.455 92.392 547.083 91.276 546.339 90.556C545.595 89.812 544.623 89.44 543.423 89.44C542.175 89.44 541.143 89.872 540.327 90.736C539.511 91.6 539.103 92.704 539.103 94.048V104.2C539.103 104.728 538.935 105.172 538.599 105.532C538.263 105.868 537.819 106.036 537.267 106.036ZM579.117 106.144C577.245 106.144 575.565 105.712 574.077 104.848C572.589 103.96 571.413 102.76 570.549 101.248C569.685 99.736 569.241 98.032 569.217 96.136V79.72C569.217 79.168 569.385 78.724 569.721 78.388C570.081 78.052 570.525 77.884 571.053 77.884C571.605 77.884 572.049 78.052 572.385 78.388C572.721 78.724 572.889 79.168 572.889 79.72V89.44C573.729 88.432 574.737 87.64 575.913 87.064C577.113 86.464 578.421 86.164 579.837 86.164C581.589 86.164 583.161 86.608 584.553 87.496C585.945 88.36 587.037 89.548 587.829 91.06C588.645 92.548 589.053 94.24 589.053 96.136C589.053 98.032 588.609 99.736 587.721 101.248C586.857 102.76 585.681 103.96 584.193 104.848C582.705 105.712 581.013 106.144 579.117 106.144ZM579.117 102.904C580.341 102.904 581.433 102.616 582.393 102.04C583.353 101.44 584.109 100.624 584.661 99.592C585.237 98.56 585.525 97.408 585.525 96.136C585.525 94.84 585.237 93.688 584.661 92.68C584.109 91.672 583.353 90.88 582.393 90.304C581.433 89.704 580.341 89.404 579.117 89.404C577.917 89.404 576.825 89.704 575.841 90.304C574.881 90.88 574.125 91.672 573.573 92.68C573.021 93.688 572.745 94.84 572.745 96.136C572.745 97.408 573.021 98.56 573.573 99.592C574.125 100.624 574.881 101.44 575.841 102.04C576.825 102.616 577.917 102.904 579.117 102.904ZM603.457 106.144C601.513 106.144 599.797 105.724 598.309 104.884C596.821 104.02 595.645 102.844 594.781 101.356C593.941 99.844 593.521 98.116 593.521 96.172C593.521 94.204 593.941 92.476 594.781 90.988C595.645 89.476 596.821 88.3 598.309 87.46C599.797 86.596 601.513 86.164 603.457 86.164C605.377 86.164 607.081 86.596 608.569 87.46C610.057 88.3 611.221 89.476 612.061 90.988C612.925 92.476 613.357 94.204 613.357 96.172C613.357 98.116 612.937 99.844 612.097 101.356C611.257 102.844 610.093 104.02 608.605 104.884C607.117 105.724 605.401 106.144 603.457 106.144ZM603.457 102.904C604.705 102.904 605.809 102.616 606.769 102.04C607.729 101.464 608.473 100.672 609.001 99.664C609.553 98.656 609.829 97.492 609.829 96.172C609.829 94.852 609.553 93.688 609.001 92.68C608.473 91.648 607.729 90.844 606.769 90.268C605.809 89.692 604.705 89.404 603.457 89.404C602.209 89.404 601.105 89.692 600.145 90.268C599.185 90.844 598.429 91.648 597.877 92.68C597.325 93.688 597.049 94.852 597.049 96.172C597.049 97.492 597.325 98.656 597.877 99.664C598.429 100.672 599.185 101.464 600.145 102.04C601.105 102.616 602.209 102.904 603.457 102.904ZM623.502 106C622.446 106 621.51 105.712 620.694 105.136C619.878 104.56 619.242 103.78 618.786 102.796C618.33 101.788 618.102 100.636 618.102 99.34V79.684C618.102 79.156 618.27 78.724 618.606 78.388C618.942 78.052 619.374 77.884 619.902 77.884C620.43 77.884 620.862 78.052 621.198 78.388C621.534 78.724 621.702 79.156 621.702 79.684V99.34C621.702 100.228 621.87 100.96 622.206 101.536C622.542 102.112 622.974 102.4 623.502 102.4H624.402C624.882 102.4 625.266 102.568 625.554 102.904C625.866 103.24 626.022 103.672 626.022 104.2C626.022 104.728 625.794 105.16 625.338 105.496C624.882 105.832 624.294 106 623.574 106H623.502ZM637.777 106.144C635.785 106.144 634.009 105.724 632.449 104.884C630.913 104.02 629.701 102.844 628.813 101.356C627.949 99.844 627.517 98.116 627.517 96.172C627.517 94.204 627.925 92.476 628.741 90.988C629.581 89.476 630.733 88.3 632.197 87.46C633.661 86.596 635.341 86.164 637.237 86.164C639.109 86.164 640.717 86.584 642.061 87.424C643.405 88.24 644.425 89.38 645.121 90.844C645.841 92.284 646.201 93.952 646.201 95.848C646.201 96.304 646.045 96.688 645.733 97C645.421 97.288 645.025 97.432 644.545 97.432H630.865C631.129 99.088 631.885 100.444 633.133 101.5C634.405 102.532 635.953 103.048 637.777 103.048C638.521 103.048 639.277 102.916 640.045 102.652C640.837 102.364 641.473 102.04 641.953 101.68C642.313 101.416 642.697 101.284 643.105 101.284C643.537 101.26 643.909 101.38 644.221 101.644C644.629 102.004 644.845 102.4 644.869 102.832C644.893 103.264 644.701 103.636 644.293 103.948C643.477 104.596 642.457 105.124 641.233 105.532C640.033 105.94 638.881 106.144 637.777 106.144ZM637.237 89.26C635.461 89.26 634.033 89.752 632.953 90.736C631.873 91.72 631.189 92.992 630.901 94.552H642.889C642.673 93.016 642.085 91.756 641.125 90.772C640.165 89.764 638.869 89.26 637.237 89.26ZM658.049 106.144C656.369 106.144 654.809 105.892 653.369 105.388C651.953 104.86 650.849 104.2 650.057 103.408C649.697 103.024 649.541 102.592 649.589 102.112C649.661 101.608 649.901 101.2 650.309 100.888C650.789 100.504 651.257 100.348 651.713 100.42C652.193 100.468 652.601 100.672 652.937 101.032C653.345 101.488 653.993 101.92 654.881 102.328C655.793 102.712 656.801 102.904 657.905 102.904C659.297 102.904 660.353 102.676 661.073 102.22C661.817 101.764 662.201 101.176 662.225 100.456C662.249 99.736 661.901 99.112 661.181 98.584C660.485 98.056 659.201 97.624 657.329 97.288C654.905 96.808 653.141 96.088 652.037 95.128C650.957 94.168 650.417 92.992 650.417 91.6C650.417 90.376 650.777 89.368 651.497 88.576C652.217 87.76 653.141 87.16 654.269 86.776C655.397 86.368 656.573 86.164 657.797 86.164C659.381 86.164 660.785 86.416 662.009 86.92C663.233 87.424 664.205 88.12 664.925 89.008C665.261 89.392 665.417 89.8 665.393 90.232C665.369 90.64 665.165 90.988 664.781 91.276C664.397 91.54 663.941 91.624 663.413 91.528C662.885 91.432 662.441 91.216 662.081 90.88C661.481 90.304 660.833 89.908 660.137 89.692C659.441 89.476 658.637 89.368 657.725 89.368C656.669 89.368 655.769 89.548 655.025 89.908C654.305 90.268 653.945 90.796 653.945 91.492C653.945 91.924 654.053 92.32 654.269 92.68C654.509 93.016 654.965 93.328 655.637 93.616C656.309 93.88 657.293 94.144 658.589 94.408C661.301 94.936 663.173 95.692 664.205 96.676C665.261 97.636 665.789 98.824 665.789 100.24C665.789 101.344 665.489 102.34 664.889 103.228C664.313 104.116 663.449 104.824 662.297 105.352C661.169 105.88 659.753 106.144 658.049 106.144ZM689.906 106.144C688.034 106.144 686.342 105.712 684.83 104.848C683.342 103.96 682.154 102.76 681.266 101.248C680.402 99.736 679.97 98.032 679.97 96.136C679.97 94.24 680.366 92.548 681.158 91.06C681.974 89.548 683.078 88.36 684.47 87.496C685.862 86.608 687.434 86.164 689.186 86.164C690.602 86.164 691.91 86.464 693.11 87.064C694.31 87.64 695.318 88.432 696.134 89.44V79.72C696.134 79.168 696.302 78.724 696.638 78.388C696.998 78.052 697.442 77.884 697.97 77.884C698.522 77.884 698.966 78.052 699.302 78.388C699.638 78.724 699.806 79.168 699.806 79.72V96.136C699.806 98.032 699.362 99.736 698.474 101.248C697.61 102.76 696.434 103.96 694.946 104.848C693.458 105.712 691.778 106.144 689.906 106.144ZM689.906 102.904C691.13 102.904 692.222 102.616 693.182 102.04C694.142 101.44 694.898 100.624 695.45 99.592C696.002 98.56 696.278 97.408 696.278 96.136C696.278 94.84 696.002 93.688 695.45 92.68C694.898 91.672 694.142 90.88 693.182 90.304C692.222 89.704 691.13 89.404 689.906 89.404C688.706 89.404 687.614 89.704 686.63 90.304C685.67 90.88 684.902 91.672 684.326 92.68C683.774 93.688 683.498 94.84 683.498 96.136C683.498 97.408 683.774 98.56 684.326 99.592C684.902 100.624 685.67 101.44 686.63 102.04C687.614 102.616 688.706 102.904 689.906 102.904ZM715.543 106.144C713.551 106.144 711.775 105.724 710.215 104.884C708.679 104.02 707.467 102.844 706.579 101.356C705.715 99.844 705.283 98.116 705.283 96.172C705.283 94.204 705.691 92.476 706.507 90.988C707.347 89.476 708.499 88.3 709.963 87.46C711.427 86.596 713.107 86.164 715.003 86.164C716.875 86.164 718.483 86.584 719.827 87.424C721.171 88.24 722.191 89.38 722.887 90.844C723.607 92.284 723.967 93.952 723.967 95.848C723.967 96.304 723.811 96.688 723.499 97C723.187 97.288 722.791 97.432 722.311 97.432H708.631C708.895 99.088 709.651 100.444 710.899 101.5C712.171 102.532 713.719 103.048 715.543 103.048C716.287 103.048 717.043 102.916 717.811 102.652C718.603 102.364 719.239 102.04 719.719 101.68C720.079 101.416 720.463 101.284 720.871 101.284C721.303 101.26 721.675 101.38 721.987 101.644C722.395 102.004 722.611 102.4 722.635 102.832C722.659 103.264 722.467 103.636 722.059 103.948C721.243 104.596 720.223 105.124 718.999 105.532C717.799 105.94 716.647 106.144 715.543 106.144ZM715.003 89.26C713.227 89.26 711.799 89.752 710.719 90.736C709.639 91.72 708.955 92.992 708.667 94.552H720.655C720.439 93.016 719.851 91.756 718.891 90.772C717.931 89.764 716.635 89.26 715.003 89.26ZM743.877 106C742.821 106 741.885 105.712 741.069 105.136C740.253 104.56 739.617 103.78 739.161 102.796C738.705 101.788 738.477 100.636 738.477 99.34V79.684C738.477 79.156 738.645 78.724 738.981 78.388C739.317 78.052 739.749 77.884 740.277 77.884C740.805 77.884 741.237 78.052 741.573 78.388C741.909 78.724 742.077 79.156 742.077 79.684V99.34C742.077 100.228 742.245 100.96 742.581 101.536C742.917 102.112 743.349 102.4 743.877 102.4H744.777C745.257 102.4 745.641 102.568 745.929 102.904C746.241 103.24 746.397 103.672 746.397 104.2C746.397 104.728 746.169 105.16 745.713 105.496C745.257 105.832 744.669 106 743.949 106H743.877ZM757.108 106.144C755.356 106.144 753.784 105.712 752.392 104.848C751 103.96 749.896 102.772 749.08 101.284C748.288 99.772 747.892 98.068 747.892 96.172C747.892 94.276 748.324 92.572 749.188 91.06C750.076 89.548 751.264 88.36 752.752 87.496C754.264 86.608 755.956 86.164 757.828 86.164C759.7 86.164 761.38 86.608 762.868 87.496C764.356 88.36 765.532 89.548 766.396 91.06C767.284 92.572 767.728 94.276 767.728 96.172V104.2C767.728 104.728 767.548 105.172 767.188 105.532C766.852 105.868 766.42 106.036 765.892 106.036C765.364 106.036 764.92 105.868 764.56 105.532C764.224 105.172 764.056 104.728 764.056 104.2V102.868C763.216 103.876 762.196 104.68 760.996 105.28C759.82 105.856 758.524 106.144 757.108 106.144ZM757.828 102.904C759.052 102.904 760.144 102.616 761.104 102.04C762.064 101.44 762.82 100.636 763.372 99.628C763.924 98.596 764.2 97.444 764.2 96.172C764.2 94.876 763.924 93.724 763.372 92.716C762.82 91.684 762.064 90.88 761.104 90.304C760.144 89.704 759.052 89.404 757.828 89.404C756.628 89.404 755.536 89.704 754.552 90.304C753.592 90.88 752.824 91.684 752.248 92.716C751.696 93.724 751.42 94.876 751.42 96.172C751.42 97.444 751.696 98.596 752.248 99.628C752.824 100.636 753.592 101.44 754.552 102.04C755.536 102.616 756.628 102.904 757.828 102.904ZM792.668 106.144C790.748 106.144 789.032 105.712 787.52 104.848C786.032 103.96 784.856 102.772 783.992 101.284C783.152 99.772 782.732 98.068 782.732 96.172C782.732 94.228 783.152 92.5 783.992 90.988C784.832 89.476 785.984 88.3 787.448 87.46C788.912 86.596 790.592 86.164 792.488 86.164C795.32 86.164 797.672 87.244 799.544 89.404C799.88 89.788 800 90.184 799.904 90.592C799.808 91 799.544 91.36 799.112 91.672C798.776 91.912 798.404 91.996 797.996 91.924C797.588 91.828 797.216 91.612 796.88 91.276C795.704 90.028 794.24 89.404 792.488 89.404C790.64 89.404 789.14 90.028 787.988 91.276C786.836 92.5 786.26 94.132 786.26 96.172C786.26 97.468 786.524 98.62 787.052 99.628C787.604 100.636 788.36 101.44 789.32 102.04C790.28 102.616 791.396 102.904 792.668 102.904C794.3 102.904 795.62 102.484 796.628 101.644C797.012 101.332 797.408 101.164 797.816 101.14C798.224 101.092 798.584 101.2 798.896 101.464C799.304 101.8 799.532 102.184 799.58 102.616C799.628 103.024 799.484 103.396 799.148 103.732C797.42 105.34 795.26 106.144 792.668 106.144ZM807.197 106.036C806.669 106.036 806.225 105.868 805.865 105.532C805.529 105.172 805.361 104.728 805.361 104.2V88.144C805.361 87.592 805.529 87.148 805.865 86.812C806.225 86.476 806.669 86.308 807.197 86.308C807.749 86.308 808.193 86.476 808.529 86.812C808.865 87.148 809.033 87.592 809.033 88.144V88.54C809.777 87.796 810.677 87.208 811.733 86.776C812.789 86.344 813.929 86.128 815.153 86.128C816.809 86.128 818.285 86.488 819.581 87.208C820.901 87.904 821.933 88.936 822.677 90.304C823.445 91.672 823.829 93.352 823.829 95.344V104.2C823.829 104.728 823.649 105.172 823.289 105.532C822.953 105.868 822.521 106.036 821.993 106.036C821.465 106.036 821.021 105.868 820.661 105.532C820.325 105.172 820.157 104.728 820.157 104.2V95.344C820.157 93.304 819.605 91.816 818.501 90.88C817.421 89.92 816.065 89.44 814.433 89.44C813.425 89.44 812.513 89.644 811.697 90.052C810.881 90.46 810.233 91.012 809.753 91.708C809.273 92.38 809.033 93.16 809.033 94.048V104.2C809.033 104.728 808.865 105.172 808.529 105.532C808.193 105.868 807.749 106.036 807.197 106.036ZM807.197 98.836C806.669 98.836 806.225 98.668 805.865 98.332C805.529 97.972 805.361 97.528 805.361 97V79.72C805.361 79.168 805.529 78.724 805.865 78.388C806.225 78.052 806.669 77.884 807.197 77.884C807.749 77.884 808.193 78.052 808.529 78.388C808.865 78.724 809.033 79.168 809.033 79.72V97C809.033 97.528 808.865 97.972 808.529 98.332C808.193 98.668 807.749 98.836 807.197 98.836ZM838.143 106.144C836.391 106.144 834.819 105.712 833.427 104.848C832.035 103.96 830.931 102.772 830.115 101.284C829.323 99.772 828.927 98.068 828.927 96.172C828.927 94.276 829.359 92.572 830.223 91.06C831.111 89.548 832.299 88.36 833.787 87.496C835.299 86.608 836.991 86.164 838.863 86.164C840.735 86.164 842.415 86.608 843.903 87.496C845.391 88.36 846.567 89.548 847.431 91.06C848.319 92.572 848.763 94.276 848.763 96.172V104.2C848.763 104.728 848.583 105.172 848.223 105.532C847.887 105.868 847.455 106.036 846.927 106.036C846.399 106.036 845.955 105.868 845.595 105.532C845.259 105.172 845.091 104.728 845.091 104.2V102.868C844.251 103.876 843.231 104.68 842.031 105.28C840.855 105.856 839.559 106.144 838.143 106.144ZM838.863 102.904C840.087 102.904 841.179 102.616 842.139 102.04C843.099 101.44 843.855 100.636 844.407 99.628C844.959 98.596 845.235 97.444 845.235 96.172C845.235 94.876 844.959 93.724 844.407 92.716C843.855 91.684 843.099 90.88 842.139 90.304C841.179 89.704 840.087 89.404 838.863 89.404C837.663 89.404 836.571 89.704 835.587 90.304C834.627 90.88 833.859 91.684 833.283 92.716C832.731 93.724 832.455 94.876 832.455 96.172C832.455 97.444 832.731 98.596 833.283 99.628C833.859 100.636 834.627 101.44 835.587 102.04C836.571 102.616 837.663 102.904 838.863 102.904ZM856.064 106.036C855.536 106.036 855.092 105.868 854.732 105.532C854.396 105.172 854.228 104.728 854.228 104.2V88.144C854.228 87.592 854.396 87.148 854.732 86.812C855.092 86.476 855.536 86.308 856.064 86.308C856.616 86.308 857.06 86.476 857.396 86.812C857.732 87.148 857.9 87.592 857.9 88.144V88.54C858.644 87.796 859.544 87.208 860.6 86.776C861.656 86.344 862.796 86.128 864.02 86.128C865.676 86.128 867.152 86.488 868.448 87.208C869.768 87.904 870.8 88.936 871.544 90.304C872.312 91.672 872.696 93.352 872.696 95.344V104.2C872.696 104.728 872.516 105.172 872.156 105.532C871.82 105.868 871.388 106.036 870.86 106.036C870.332 106.036 869.888 105.868 869.528 105.532C869.192 105.172 869.024 104.728 869.024 104.2V95.344C869.024 93.304 868.472 91.816 867.368 90.88C866.288 89.92 864.932 89.44 863.3 89.44C862.292 89.44 861.38 89.644 860.564 90.052C859.748 90.46 859.1 91.012 858.62 91.708C858.14 92.38 857.9 93.16 857.9 94.048V104.2C857.9 104.728 857.732 105.172 857.396 105.532C857.06 105.868 856.616 106.036 856.064 106.036ZM887.695 106.144C885.775 106.144 884.059 105.712 882.547 104.848C881.059 103.96 879.883 102.772 879.019 101.284C878.179 99.772 877.759 98.068 877.759 96.172C877.759 94.228 878.179 92.5 879.019 90.988C879.859 89.476 881.011 88.3 882.475 87.46C883.939 86.596 885.619 86.164 887.515 86.164C890.347 86.164 892.699 87.244 894.571 89.404C894.907 89.788 895.027 90.184 894.931 90.592C894.835 91 894.571 91.36 894.139 91.672C893.803 91.912 893.431 91.996 893.023 91.924C892.615 91.828 892.243 91.612 891.907 91.276C890.731 90.028 889.267 89.404 887.515 89.404C885.667 89.404 884.167 90.028 883.015 91.276C881.863 92.5 881.287 94.132 881.287 96.172C881.287 97.468 881.551 98.62 882.079 99.628C882.631 100.636 883.387 101.44 884.347 102.04C885.307 102.616 886.423 102.904 887.695 102.904C889.327 102.904 890.647 102.484 891.655 101.644C892.039 101.332 892.435 101.164 892.843 101.14C893.251 101.092 893.611 101.2 893.923 101.464C894.331 101.8 894.559 102.184 894.607 102.616C894.655 103.024 894.511 103.396 894.175 103.732C892.447 105.34 890.287 106.144 887.695 106.144ZM909.64 106.144C907.648 106.144 905.872 105.724 904.312 104.884C902.776 104.02 901.564 102.844 900.676 101.356C899.812 99.844 899.38 98.116 899.38 96.172C899.38 94.204 899.788 92.476 900.604 90.988C901.444 89.476 902.596 88.3 904.06 87.46C905.524 86.596 907.204 86.164 909.1 86.164C910.972 86.164 912.58 86.584 913.924 87.424C915.268 88.24 916.288 89.38 916.984 90.844C917.704 92.284 918.064 93.952 918.064 95.848C918.064 96.304 917.908 96.688 917.596 97C917.284 97.288 916.888 97.432 916.408 97.432H902.728C902.992 99.088 903.748 100.444 904.996 101.5C906.268 102.532 907.816 103.048 909.64 103.048C910.384 103.048 911.14 102.916 911.908 102.652C912.7 102.364 913.336 102.04 913.816 101.68C914.176 101.416 914.56 101.284 914.968 101.284C915.4 101.26 915.772 101.38 916.084 101.644C916.492 102.004 916.708 102.4 916.732 102.832C916.756 103.264 916.564 103.636 916.156 103.948C915.34 104.596 914.32 105.124 913.096 105.532C911.896 105.94 910.744 106.144 909.64 106.144ZM909.1 89.26C907.324 89.26 905.896 89.752 904.816 90.736C903.736 91.72 903.052 92.992 902.764 94.552H914.752C914.536 93.016 913.948 91.756 912.988 90.772C912.028 89.764 910.732 89.26 909.1 89.26Z" fill="black"/>
</svg>
