<svg width="1440" height="800" viewBox="0 0 1440 800" fill="none" xmlns="http://www.w3.org/2000/svg">
<rect width="1440" height="800" fill="white"/>
<path d="M719.5 479C802.619 479 870 411.395 870 328C870 244.605 802.619 177 719.5 177C636.381 177 569 244.605 569 328C569 411.395 636.381 479 719.5 479Z" fill="url(#paint0_linear_201:22)"/>
<path d="M475.113 91.5703C475.113 89.5781 474.41 88.0547 473.004 87C471.598 85.9219 469.066 84.7969 465.41 83.625C461.754 82.4297 458.859 81.2578 456.727 80.1094C450.914 76.9688 448.008 72.7383 448.008 67.418C448.008 64.6523 448.781 62.1914 450.328 60.0352C451.898 57.8555 454.137 56.1562 457.043 54.9375C459.973 53.7188 463.254 53.1094 466.887 53.1094C470.543 53.1094 473.801 53.7773 476.66 55.1133C479.52 56.4258 481.734 58.2891 483.305 60.7031C484.898 63.1172 485.695 65.8594 485.695 68.9297H475.148C475.148 66.5859 474.41 64.7695 472.934 63.4805C471.457 62.168 469.383 61.5117 466.711 61.5117C464.133 61.5117 462.129 62.0625 460.699 63.1641C459.27 64.2422 458.555 65.6719 458.555 67.4531C458.555 69.1172 459.387 70.5117 461.051 71.6367C462.738 72.7617 465.211 73.8164 468.469 74.8008C474.469 76.6055 478.84 78.8438 481.582 81.5156C484.324 84.1875 485.695 87.5156 485.695 91.5C485.695 95.9297 484.02 99.4102 480.668 101.941C477.316 104.449 472.805 105.703 467.133 105.703C463.195 105.703 459.609 104.988 456.375 103.559C453.141 102.105 450.668 100.125 448.957 97.6172C447.27 95.1094 446.426 92.2031 446.426 88.8984H457.008C457.008 94.5469 460.383 97.3711 467.133 97.3711C469.641 97.3711 471.598 96.8672 473.004 95.8594C474.41 94.8281 475.113 93.3984 475.113 91.5703ZM509.707 105.703C504.129 105.703 499.582 103.992 496.066 100.57C492.574 97.1484 490.828 92.5898 490.828 86.8945V85.9102C490.828 82.0898 491.566 78.6797 493.043 75.6797C494.52 72.6562 496.605 70.3359 499.301 68.7188C502.02 67.0781 505.113 66.2578 508.582 66.2578C513.785 66.2578 517.875 67.8984 520.852 71.1797C523.852 74.4609 525.352 79.1133 525.352 85.1367V89.2852H501.129C501.457 91.7695 502.441 93.7617 504.082 95.2617C505.746 96.7617 507.844 97.5117 510.375 97.5117C514.289 97.5117 517.348 96.0938 519.551 93.2578L524.543 98.8477C523.02 101.004 520.957 102.691 518.355 103.91C515.754 105.105 512.871 105.703 509.707 105.703ZM508.547 74.4844C506.531 74.4844 504.891 75.1641 503.625 76.5234C502.383 77.8828 501.586 79.8281 501.234 82.3594H515.367V81.5508C515.32 79.3008 514.711 77.5664 513.539 76.3477C512.367 75.1055 510.703 74.4844 508.547 74.4844ZM548.66 105.703C543.082 105.703 538.535 103.992 535.02 100.57C531.527 97.1484 529.781 92.5898 529.781 86.8945V85.9102C529.781 82.0898 530.52 78.6797 531.996 75.6797C533.473 72.6562 535.559 70.3359 538.254 68.7188C540.973 67.0781 544.066 66.2578 547.535 66.2578C552.738 66.2578 556.828 67.8984 559.805 71.1797C562.805 74.4609 564.305 79.1133 564.305 85.1367V89.2852H540.082C540.41 91.7695 541.395 93.7617 543.035 95.2617C544.699 96.7617 546.797 97.5117 549.328 97.5117C553.242 97.5117 556.301 96.0938 558.504 93.2578L563.496 98.8477C561.973 101.004 559.91 102.691 557.309 103.91C554.707 105.105 551.824 105.703 548.66 105.703ZM547.5 74.4844C545.484 74.4844 543.844 75.1641 542.578 76.5234C541.336 77.8828 540.539 79.8281 540.188 82.3594H554.32V81.5508C554.273 79.3008 553.664 77.5664 552.492 76.3477C551.32 75.1055 549.656 74.4844 547.5 74.4844ZM606.352 76.875L617.004 53.8125H628.535L611.73 86.4375V105H601.008V86.4375L584.203 53.8125H595.77L606.352 76.875ZM628.641 85.6289C628.641 81.8555 629.367 78.4922 630.82 75.5391C632.273 72.5859 634.359 70.3008 637.078 68.6836C639.82 67.0664 642.996 66.2578 646.605 66.2578C651.738 66.2578 655.922 67.8281 659.156 70.9688C662.414 74.1094 664.23 78.375 664.605 83.7656L664.676 86.3672C664.676 92.2031 663.047 96.8906 659.789 100.43C656.531 103.945 652.16 105.703 646.676 105.703C641.191 105.703 636.809 103.945 633.527 100.43C630.27 96.9141 628.641 92.1328 628.641 86.0859V85.6289ZM638.801 86.3672C638.801 89.9766 639.48 92.7422 640.84 94.6641C642.199 96.5625 644.145 97.5117 646.676 97.5117C649.137 97.5117 651.059 96.5742 652.441 94.6992C653.824 92.8008 654.516 89.7773 654.516 85.6289C654.516 82.0898 653.824 79.3477 652.441 77.4023C651.059 75.457 649.113 74.4844 646.605 74.4844C644.121 74.4844 642.199 75.457 640.84 77.4023C639.48 79.3242 638.801 82.3125 638.801 86.3672ZM693.715 101.133C691.207 104.18 687.738 105.703 683.309 105.703C679.23 105.703 676.113 104.531 673.957 102.188C671.824 99.8438 670.734 96.4102 670.688 91.8867V66.9609H680.848V91.5352C680.848 95.4961 682.652 97.4766 686.262 97.4766C689.707 97.4766 692.074 96.2812 693.363 93.8906V66.9609H703.559V105H693.996L693.715 101.133ZM771.867 80.5664C771.867 85.6055 770.977 90.0234 769.195 93.8203C767.414 97.6172 764.859 100.547 761.531 102.609C758.227 104.672 754.43 105.703 750.141 105.703C745.898 105.703 742.113 104.684 738.785 102.645C735.457 100.605 732.879 97.6992 731.051 93.9258C729.223 90.1289 728.297 85.7695 728.273 80.8477V78.3164C728.273 73.2773 729.176 68.8477 730.98 65.0273C732.809 61.1836 735.375 58.2422 738.68 56.2031C742.008 54.1406 745.805 53.1094 750.07 53.1094C754.336 53.1094 758.121 54.1406 761.426 56.2031C764.754 58.2422 767.32 61.1836 769.125 65.0273C770.953 68.8477 771.867 73.2656 771.867 78.2812V80.5664ZM761.18 78.2461C761.18 72.8789 760.219 68.8008 758.297 66.0117C756.375 63.2227 753.633 61.8281 750.07 61.8281C746.531 61.8281 743.801 63.2109 741.879 65.9766C739.957 68.7188 738.984 72.75 738.961 78.0703V80.5664C738.961 85.793 739.922 89.8477 741.844 92.7305C743.766 95.6133 746.531 97.0547 750.141 97.0547C753.68 97.0547 756.398 95.6719 758.297 92.9062C760.195 90.1172 761.156 86.0625 761.18 80.7422V78.2461ZM788.215 66.9609L788.531 71.3555C791.25 67.957 794.895 66.2578 799.465 66.2578C803.496 66.2578 806.496 67.4414 808.465 69.8086C810.434 72.1758 811.441 75.7148 811.488 80.4258V105H801.328V80.6719C801.328 78.5156 800.859 76.957 799.922 75.9961C798.984 75.0117 797.426 74.5195 795.246 74.5195C792.387 74.5195 790.242 75.7383 788.812 78.1758V105H778.652V66.9609H788.215ZM851.602 53.8125L864.75 90.9375L877.828 53.8125H891.68V105H881.098V91.0078L882.152 66.8555L868.336 105H861.094L847.312 66.8906L848.367 91.0078V105H837.82V53.8125H851.602ZM922.266 105C921.797 104.086 921.457 102.949 921.246 101.59C918.785 104.332 915.586 105.703 911.648 105.703C907.922 105.703 904.828 104.625 902.367 102.469C899.93 100.312 898.711 97.5938 898.711 94.3125C898.711 90.2812 900.199 87.1875 903.176 85.0312C906.176 82.875 910.5 81.7852 916.148 81.7617H920.824V79.582C920.824 77.8242 920.367 76.418 919.453 75.3633C918.562 74.3086 917.145 73.7812 915.199 73.7812C913.488 73.7812 912.141 74.1914 911.156 75.0117C910.195 75.832 909.715 76.957 909.715 78.3867H899.555C899.555 76.1836 900.234 74.1445 901.594 72.2695C902.953 70.3945 904.875 68.9297 907.359 67.875C909.844 66.7969 912.633 66.2578 915.727 66.2578C920.414 66.2578 924.129 67.4414 926.871 69.8086C929.637 72.1523 931.02 75.457 931.02 79.7227V96.2109C931.043 99.8203 931.547 102.551 932.531 104.402V105H922.266ZM913.863 97.9336C915.363 97.9336 916.746 97.6055 918.012 96.9492C919.277 96.2695 920.215 95.3672 920.824 94.2422V87.7031H917.027C911.941 87.7031 909.234 89.4609 908.906 92.9766L908.871 93.5742C908.871 94.8398 909.316 95.8828 910.207 96.7031C911.098 97.5234 912.316 97.9336 913.863 97.9336ZM960.199 76.4883C958.816 76.3008 957.598 76.207 956.543 76.207C952.699 76.207 950.18 77.5078 948.984 80.1094V105H938.824V66.9609H948.422L948.703 71.4961C950.742 68.0039 953.566 66.2578 957.176 66.2578C958.301 66.2578 959.355 66.4102 960.34 66.7148L960.199 76.4883ZM985.723 94.4883C985.723 93.2461 985.102 92.2734 983.859 91.5703C982.641 90.8438 980.672 90.1992 977.953 89.6367C968.906 87.7383 964.383 83.8945 964.383 78.1055C964.383 74.7305 965.777 71.918 968.566 69.668C971.379 67.3945 975.047 66.2578 979.57 66.2578C984.398 66.2578 988.254 67.3945 991.137 69.668C994.043 71.9414 995.496 74.8945 995.496 78.5273H985.336C985.336 77.0742 984.867 75.8789 983.93 74.9414C982.992 73.9805 981.527 73.5 979.535 73.5C977.824 73.5 976.5 73.8867 975.562 74.6602C974.625 75.4336 974.156 76.418 974.156 77.6133C974.156 78.7383 974.684 79.6523 975.738 80.3555C976.816 81.0352 978.621 81.6328 981.152 82.1484C983.684 82.6406 985.816 83.2031 987.551 83.8359C992.918 85.8047 995.602 89.2148 995.602 94.0664C995.602 97.5352 994.113 100.348 991.137 102.504C988.16 104.637 984.316 105.703 979.605 105.703C976.418 105.703 973.582 105.141 971.098 104.016C968.637 102.867 966.703 101.309 965.297 99.3398C963.891 97.3477 963.188 95.2031 963.188 92.9062H972.82C972.914 94.7109 973.582 96.0938 974.824 97.0547C976.066 98.0156 977.73 98.4961 979.816 98.4961C981.762 98.4961 983.227 98.1328 984.211 97.4062C985.219 96.6562 985.723 95.6836 985.723 94.4883Z" fill="black"/>
<path d="M444 112.031H998.238V115.547H444V112.031Z" fill="black"/>
<path d="M721 479C637.605 479 570 411.395 570 328C570 244.605 637.605 177 721 177" fill="url(#paint1_linear_201:22)"/>
<path d="M722.968 197.807L746.194 286.295C746.479 287.372 747.444 288.112 748.547 288.102L839.56 287.579C842.041 287.569 842.937 290.857 840.791 292.111L764.546 336.75C763.522 337.352 763.079 338.616 763.512 339.732L790.292 408.769C791.365 411.524 787.526 413.439 785.97 410.932L723.165 309.123C722.219 307.593 720.004 307.583 719.049 309.114L654.875 411.84C653.32 414.338 649.499 412.422 650.563 409.678L677.55 339.801C677.973 338.695 677.55 337.451 676.536 336.839L602.181 292.091C600.064 290.818 600.98 287.569 603.442 287.579L692.702 288.102C693.805 288.112 694.78 287.362 695.055 286.295L718.281 197.807C718.911 195.398 722.338 195.398 722.968 197.807Z" fill="white"/>
<path d="M609.448 593.07C607.053 593.07 606 591.98 606 589.484V525.04C606 522.558 607.053 521.454 609.448 521.454H619.39C621.873 521.454 623.403 522.156 625.032 524.137L643.588 546.216V525.04C643.588 522.558 644.642 521.454 647.036 521.454H661.38C663.774 521.454 664.827 522.545 664.827 525.04L667.435 587.09C667.435 589.572 669.943 593.07 661.38 593.07H647.036C644.642 593.07 643.588 591.98 643.588 589.484V577.248L627.239 556.66V589.484C627.239 591.967 626.186 593.07 623.791 593.07H609.448Z" fill="url(#paint2_linear_201:22)"/>
<path d="M664.84 547.357L671.911 524.777C672.676 522.495 674.206 521.492 676.789 521.492H702.516C704.999 521.492 706.528 522.482 707.293 524.777L715.618 547.357C718.201 554.316 719.354 559.293 719.354 563.268V589.522C719.354 592.005 718.301 593.108 715.907 593.108H701.463C698.88 593.108 697.727 592.017 697.727 589.522L698.466 540.399H680.412L680.801 589.522C680.801 592.005 679.747 593.108 677.353 593.108H663.298" fill="url(#paint3_linear_201:22)"/>
<path d="M796.011 591.616H781.944C779.549 591.616 778.496 590.525 778.496 588.03V561.789C778.496 557.814 779.649 552.837 782.232 545.878L790.557 523.297C791.322 521.016 792.851 520.013 795.434 520.013H821.162C823.644 520.013 825.174 521.003 825.939 523.297L834.264 545.878C836.847 552.837 838 557.814 838 561.789V588.043C838 590.525 836.947 591.629 834.552 591.629H820.109C817.526 591.629 816.372 590.538 816.372 588.043L817.112 538.92H799.058L799.446 588.043C799.459 590.525 798.406 591.616 796.011 591.616Z" fill="url(#paint4_linear_201:22)"/>
<path d="M785.328 539.446L747.765 539.246C746.135 539.246 745.182 540.437 745.182 542.23C745.182 544.022 746.135 545.214 747.765 545.414L762.021 547.408C771.01 548.799 776.941 552.774 776.941 563.92V574.364C776.941 585.698 769.481 591.867 757.143 591.867H726.915C724.52 591.867 723.467 590.776 723.467 588.281V576.646C723.467 574.163 724.52 573.06 726.915 573.06H752.642C754.272 573.06 755.125 571.769 755.125 570.176C755.125 567.894 754.26 566.992 752.642 566.791L738.299 564.697C729.309 563.306 723.467 559.331 723.467 548.185V537.741C723.467 526.407 730.839 520.238 743.264 520.238L795.359 520" fill="url(#paint5_linear_201:22)"/>
<path d="M505.363 691.24H517.492V694H501.971V668.406H505.363V691.24ZM528.725 694.352C526.146 694.352 524.049 693.508 522.432 691.82C520.814 690.121 520.006 687.854 520.006 685.018V684.42C520.006 682.533 520.363 680.852 521.078 679.375C521.805 677.887 522.812 676.727 524.102 675.895C525.402 675.051 526.809 674.629 528.32 674.629C530.793 674.629 532.715 675.443 534.086 677.072C535.457 678.701 536.143 681.033 536.143 684.068V685.422H523.258C523.305 687.297 523.85 688.814 524.893 689.975C525.947 691.123 527.283 691.697 528.9 691.697C530.049 691.697 531.021 691.463 531.818 690.994C532.615 690.525 533.312 689.904 533.91 689.131L535.896 690.678C534.303 693.127 531.912 694.352 528.725 694.352ZM528.32 677.301C527.008 677.301 525.906 677.781 525.016 678.742C524.125 679.691 523.574 681.027 523.363 682.75H532.891V682.504C532.797 680.852 532.352 679.574 531.555 678.672C530.758 677.758 529.68 677.301 528.32 677.301ZM552.385 694H549.133V667H552.385V694ZM556.744 684.314C556.744 682.451 557.107 680.775 557.834 679.287C558.572 677.799 559.592 676.65 560.893 675.842C562.205 675.033 563.699 674.629 565.375 674.629C567.965 674.629 570.057 675.525 571.65 677.318C573.256 679.111 574.059 681.496 574.059 684.473V684.701C574.059 686.553 573.701 688.217 572.986 689.693C572.283 691.158 571.27 692.301 569.945 693.121C568.633 693.941 567.121 694.352 565.41 694.352C562.832 694.352 560.74 693.455 559.135 691.662C557.541 689.869 556.744 687.496 556.744 684.543V684.314ZM560.014 684.701C560.014 686.811 560.5 688.504 561.473 689.781C562.457 691.059 563.77 691.697 565.41 691.697C567.062 691.697 568.375 691.053 569.348 689.764C570.32 688.463 570.807 686.646 570.807 684.314C570.807 682.229 570.309 680.541 569.312 679.252C568.328 677.951 567.016 677.301 565.375 677.301C563.77 677.301 562.475 677.939 561.49 679.217C560.506 680.494 560.014 682.322 560.014 684.701ZM577.363 684.332C577.363 681.367 578.049 679.012 579.42 677.266C580.791 675.508 582.607 674.629 584.869 674.629C587.189 674.629 589 675.449 590.301 677.09L590.459 674.98H593.43V693.543C593.43 696.004 592.697 697.943 591.232 699.361C589.779 700.779 587.822 701.488 585.361 701.488C583.99 701.488 582.648 701.195 581.336 700.609C580.023 700.023 579.021 699.221 578.33 698.201L580.018 696.25C581.412 697.973 583.117 698.834 585.133 698.834C586.715 698.834 587.945 698.389 588.824 697.498C589.715 696.607 590.16 695.354 590.16 693.736V692.102C588.859 693.602 587.084 694.352 584.834 694.352C582.607 694.352 580.803 693.455 579.42 691.662C578.049 689.869 577.363 687.426 577.363 684.332ZM580.633 684.701C580.633 686.846 581.072 688.533 581.951 689.764C582.83 690.982 584.061 691.592 585.643 691.592C587.693 691.592 589.199 690.66 590.16 688.797V680.113C589.164 678.297 587.67 677.389 585.678 677.389C584.096 677.389 582.859 678.004 581.969 679.234C581.078 680.465 580.633 682.287 580.633 684.701ZM597.49 684.314C597.49 682.451 597.854 680.775 598.58 679.287C599.318 677.799 600.338 676.65 601.639 675.842C602.951 675.033 604.445 674.629 606.121 674.629C608.711 674.629 610.803 675.525 612.396 677.318C614.002 679.111 614.805 681.496 614.805 684.473V684.701C614.805 686.553 614.447 688.217 613.732 689.693C613.029 691.158 612.016 692.301 610.691 693.121C609.379 693.941 607.867 694.352 606.156 694.352C603.578 694.352 601.486 693.455 599.881 691.662C598.287 689.869 597.49 687.496 597.49 684.543V684.314ZM600.76 684.701C600.76 686.811 601.246 688.504 602.219 689.781C603.203 691.059 604.516 691.697 606.156 691.697C607.809 691.697 609.121 691.053 610.094 689.764C611.066 688.463 611.553 686.646 611.553 684.314C611.553 682.229 611.055 680.541 610.059 679.252C609.074 677.951 607.762 677.301 606.121 677.301C604.516 677.301 603.221 677.939 602.236 679.217C601.252 680.494 600.76 682.322 600.76 684.701ZM623.752 668.406L632.119 689.289L640.486 668.406H644.863V694H641.488V684.033L641.805 673.275L633.402 694H630.818L622.434 673.328L622.768 684.033V694H619.393V668.406H623.752ZM662.055 694C661.867 693.625 661.715 692.957 661.598 691.996C660.086 693.566 658.281 694.352 656.184 694.352C654.309 694.352 652.768 693.824 651.561 692.77C650.365 691.703 649.768 690.355 649.768 688.727C649.768 686.746 650.518 685.211 652.018 684.121C653.529 683.02 655.65 682.469 658.381 682.469H661.545V680.975C661.545 679.838 661.205 678.936 660.525 678.268C659.846 677.588 658.844 677.248 657.52 677.248C656.359 677.248 655.387 677.541 654.602 678.127C653.816 678.713 653.424 679.422 653.424 680.254H650.154C650.154 679.305 650.488 678.391 651.156 677.512C651.836 676.621 652.75 675.918 653.898 675.402C655.059 674.887 656.33 674.629 657.713 674.629C659.904 674.629 661.621 675.18 662.863 676.281C664.105 677.371 664.75 678.877 664.797 680.799V689.553C664.797 691.299 665.02 692.688 665.465 693.719V694H662.055ZM656.658 691.521C657.678 691.521 658.645 691.258 659.559 690.73C660.473 690.203 661.135 689.518 661.545 688.674V684.771H658.996C655.012 684.771 653.02 685.938 653.02 688.27C653.02 689.289 653.359 690.086 654.039 690.66C654.719 691.234 655.592 691.521 656.658 691.521ZM679.088 677.898C678.596 677.816 678.062 677.775 677.488 677.775C675.355 677.775 673.908 678.684 673.146 680.5V694H669.895V674.98H673.059L673.111 677.178C674.178 675.479 675.689 674.629 677.646 674.629C678.279 674.629 678.76 674.711 679.088 674.875V677.898ZM687.402 685.193L685.363 687.32V694H682.111V667H685.363V683.33L687.104 681.238L693.027 674.98H696.982L689.582 682.926L697.844 694H694.029L687.402 685.193ZM717.162 694.352C714.584 694.352 712.486 693.508 710.869 691.82C709.252 690.121 708.443 687.854 708.443 685.018V684.42C708.443 682.533 708.801 680.852 709.516 679.375C710.242 677.887 711.25 676.727 712.539 675.895C713.84 675.051 715.246 674.629 716.758 674.629C719.23 674.629 721.152 675.443 722.523 677.072C723.895 678.701 724.58 681.033 724.58 684.068V685.422H711.695C711.742 687.297 712.287 688.814 713.33 689.975C714.385 691.123 715.721 691.697 717.338 691.697C718.486 691.697 719.459 691.463 720.256 690.994C721.053 690.525 721.75 689.904 722.348 689.131L724.334 690.678C722.74 693.127 720.35 694.352 717.162 694.352ZM716.758 677.301C715.445 677.301 714.344 677.781 713.453 678.742C712.562 679.691 712.012 681.027 711.801 682.75H721.328V682.504C721.234 680.852 720.789 679.574 719.992 678.672C719.195 677.758 718.117 677.301 716.758 677.301ZM732.771 670.375V674.98H736.322V677.494H732.771V689.289C732.771 690.051 732.93 690.625 733.246 691.012C733.562 691.387 734.102 691.574 734.863 691.574C735.238 691.574 735.754 691.504 736.41 691.363V694C735.555 694.234 734.723 694.352 733.914 694.352C732.461 694.352 731.365 693.912 730.627 693.033C729.889 692.154 729.52 690.906 729.52 689.289V677.494H726.057V674.98H729.52V670.375H732.771ZM752.969 691.24H765.098V694H749.576V668.406H752.969V691.24ZM776.33 694.352C773.752 694.352 771.654 693.508 770.037 691.82C768.42 690.121 767.611 687.854 767.611 685.018V684.42C767.611 682.533 767.969 680.852 768.684 679.375C769.41 677.887 770.418 676.727 771.707 675.895C773.008 675.051 774.414 674.629 775.926 674.629C778.398 674.629 780.32 675.443 781.691 677.072C783.062 678.701 783.748 681.033 783.748 684.068V685.422H770.863C770.91 687.297 771.455 688.814 772.498 689.975C773.553 691.123 774.889 691.697 776.506 691.697C777.654 691.697 778.627 691.463 779.424 690.994C780.221 690.525 780.918 689.904 781.516 689.131L783.502 690.678C781.908 693.127 779.518 694.352 776.33 694.352ZM775.926 677.301C774.613 677.301 773.512 677.781 772.621 678.742C771.73 679.691 771.18 681.027 770.969 682.75H780.496V682.504C780.402 680.852 779.957 679.574 779.16 678.672C778.363 677.758 777.285 677.301 775.926 677.301ZM799.99 694H796.738V667H799.99V694ZM804.35 684.314C804.35 682.451 804.713 680.775 805.439 679.287C806.178 677.799 807.197 676.65 808.498 675.842C809.811 675.033 811.305 674.629 812.98 674.629C815.57 674.629 817.662 675.525 819.256 677.318C820.861 679.111 821.664 681.496 821.664 684.473V684.701C821.664 686.553 821.307 688.217 820.592 689.693C819.889 691.158 818.875 692.301 817.551 693.121C816.238 693.941 814.727 694.352 813.016 694.352C810.438 694.352 808.346 693.455 806.74 691.662C805.146 689.869 804.35 687.496 804.35 684.543V684.314ZM807.619 684.701C807.619 686.811 808.105 688.504 809.078 689.781C810.062 691.059 811.375 691.697 813.016 691.697C814.668 691.697 815.98 691.053 816.953 689.764C817.926 688.463 818.412 686.646 818.412 684.314C818.412 682.229 817.914 680.541 816.918 679.252C815.934 677.951 814.621 677.301 812.98 677.301C811.375 677.301 810.08 677.939 809.096 679.217C808.111 680.494 807.619 682.322 807.619 684.701ZM824.969 684.332C824.969 681.367 825.654 679.012 827.025 677.266C828.396 675.508 830.213 674.629 832.475 674.629C834.795 674.629 836.605 675.449 837.906 677.09L838.064 674.98H841.035V693.543C841.035 696.004 840.303 697.943 838.838 699.361C837.385 700.779 835.428 701.488 832.967 701.488C831.596 701.488 830.254 701.195 828.941 700.609C827.629 700.023 826.627 699.221 825.936 698.201L827.623 696.25C829.018 697.973 830.723 698.834 832.738 698.834C834.32 698.834 835.551 698.389 836.43 697.498C837.32 696.607 837.766 695.354 837.766 693.736V692.102C836.465 693.602 834.689 694.352 832.439 694.352C830.213 694.352 828.408 693.455 827.025 691.662C825.654 689.869 824.969 687.426 824.969 684.332ZM828.238 684.701C828.238 686.846 828.678 688.533 829.557 689.764C830.436 690.982 831.666 691.592 833.248 691.592C835.299 691.592 836.805 690.66 837.766 688.797V680.113C836.77 678.297 835.275 677.389 833.283 677.389C831.701 677.389 830.465 678.004 829.574 679.234C828.684 680.465 828.238 682.287 828.238 684.701ZM845.096 684.314C845.096 682.451 845.459 680.775 846.186 679.287C846.924 677.799 847.943 676.65 849.244 675.842C850.557 675.033 852.051 674.629 853.727 674.629C856.316 674.629 858.408 675.525 860.002 677.318C861.607 679.111 862.41 681.496 862.41 684.473V684.701C862.41 686.553 862.053 688.217 861.338 689.693C860.635 691.158 859.621 692.301 858.297 693.121C856.984 693.941 855.473 694.352 853.762 694.352C851.184 694.352 849.092 693.455 847.486 691.662C845.893 689.869 845.096 687.496 845.096 684.543V684.314ZM848.365 684.701C848.365 686.811 848.852 688.504 849.824 689.781C850.809 691.059 852.121 691.697 853.762 691.697C855.414 691.697 856.727 691.053 857.699 689.764C858.672 688.463 859.158 686.646 859.158 684.314C859.158 682.229 858.66 680.541 857.664 679.252C856.68 677.951 855.367 677.301 853.727 677.301C852.121 677.301 850.826 677.939 849.842 679.217C848.857 680.494 848.365 682.322 848.365 684.701ZM884.682 671.184H876.455V694H873.098V671.184H864.889V668.406H884.682V671.184ZM892.926 689.236L897.355 674.98H900.836L893.189 696.936C892.006 700.1 890.125 701.682 887.547 701.682L886.932 701.629L885.719 701.4V698.764L886.598 698.834C887.699 698.834 888.555 698.611 889.164 698.166C889.785 697.721 890.295 696.906 890.693 695.723L891.414 693.789L884.629 674.98H888.18L892.926 689.236ZM919.82 684.701C919.82 687.596 919.158 689.928 917.834 691.697C916.51 693.467 914.717 694.352 912.455 694.352C910.146 694.352 908.33 693.619 907.006 692.154V701.312H903.754V674.98H906.725L906.883 677.09C908.207 675.449 910.047 674.629 912.402 674.629C914.688 674.629 916.492 675.49 917.816 677.213C919.152 678.936 919.82 681.332 919.82 684.402V684.701ZM916.568 684.332C916.568 682.188 916.111 680.494 915.197 679.252C914.283 678.01 913.029 677.389 911.436 677.389C909.467 677.389 907.99 678.262 907.006 680.008V689.096C907.979 690.83 909.467 691.697 911.471 691.697C913.029 691.697 914.266 691.082 915.18 689.852C916.105 688.609 916.568 686.77 916.568 684.332ZM931.861 694.352C929.283 694.352 927.186 693.508 925.568 691.82C923.951 690.121 923.143 687.854 923.143 685.018V684.42C923.143 682.533 923.5 680.852 924.215 679.375C924.941 677.887 925.949 676.727 927.238 675.895C928.539 675.051 929.945 674.629 931.457 674.629C933.93 674.629 935.852 675.443 937.223 677.072C938.594 678.701 939.279 681.033 939.279 684.068V685.422H926.395C926.441 687.297 926.986 688.814 928.029 689.975C929.084 691.123 930.42 691.697 932.037 691.697C933.186 691.697 934.158 691.463 934.955 690.994C935.752 690.525 936.449 689.904 937.047 689.131L939.033 690.678C937.439 693.127 935.049 694.352 931.861 694.352ZM931.457 677.301C930.145 677.301 929.043 677.781 928.152 678.742C927.262 679.691 926.711 681.027 926.5 682.75H936.027V682.504C935.934 680.852 935.488 679.574 934.691 678.672C933.895 677.758 932.816 677.301 931.457 677.301Z" fill="black"/>
<defs>
<linearGradient id="paint0_linear_201:22" x1="569" y1="328" x2="870" y2="328" gradientUnits="userSpaceOnUse">
<stop stop-color="#B12235"/>
</linearGradient>
<linearGradient id="paint1_linear_201:22" x1="570" y1="328" x2="721" y2="328" gradientUnits="userSpaceOnUse">
<stop stop-color="#3B3C6D"/>
</linearGradient>
<linearGradient id="paint2_linear_201:22" x1="606" y1="557.262" x2="667.475" y2="557.262" gradientUnits="userSpaceOnUse">
<stop stop-color="#B12235"/>
</linearGradient>
<linearGradient id="paint3_linear_201:22" x1="663.293" y1="557.305" x2="719.351" y2="557.305" gradientUnits="userSpaceOnUse">
<stop stop-color="#B12235"/>
</linearGradient>
<linearGradient id="paint4_linear_201:22" x1="778.508" y1="555.816" x2="838.009" y2="555.816" gradientUnits="userSpaceOnUse">
<stop stop-color="#3B3C6D"/>
</linearGradient>
<linearGradient id="paint5_linear_201:22" x1="723.469" y1="555.936" x2="795.361" y2="555.936" gradientUnits="userSpaceOnUse">
<stop stop-color="#3B3C6D"/>
</linearGradient>
</defs>
</svg>
