<svg width="493" height="493" viewBox="0 0 493 493" fill="none" xmlns="http://www.w3.org/2000/svg">
<path d="M312.178 110.203C311.518 114.573 310.678 118.813 309.718 122.853L324.918 130.103C414.028 174.293 460.198 256.763 472.148 292.473C426.568 372.793 275.018 447.013 204.938 474.083C133.688 405.103 146.118 254.383 170.278 215.463C167.838 201.563 166.148 188.493 165.128 176.223V176.213C163.718 159.393 163.558 144.063 164.408 130.103C165.048 119.583 166.268 109.853 167.958 100.843C163.818 86.9033 139.658 75.6633 128.098 71.7833C28.7182 63.0233 37.6882 129.903 54.5882 164.433C4.8182 221.953 -26.2318 316.983 39.1482 453.183C42.8682 458.193 54.2482 467.203 70.0482 463.203L204.938 491.653C255.698 476.313 384.168 416.173 491.998 298.353C485.448 258.403 440.308 164.843 312.178 110.203ZM128.098 87.4833C132.678 89.6733 142.418 95.6333 144.788 101.983C141.348 102.573 138.068 103.773 135.618 104.993C114.418 113.693 89.3182 129.223 66.4982 151.873C54.9282 124.573 50.9182 73.4733 128.098 87.4833ZM279.098 141.863C272.478 149.383 263.218 164.433 279.098 164.433C287.358 163.593 303.888 159.893 303.888 151.873V141.863C287.058 151.263 280.348 145.773 279.098 141.863ZM226.858 113.403H182.628C181.738 126.113 182.158 139.143 183.438 151.873C184.278 160.263 185.378 171.093 186.858 178.913C198.398 158.893 231.388 117.783 270.978 113.403L287.618 116.963C288.358 111.713 288.848 106.703 289.108 101.953C278.808 100.493 248.458 101.733 226.858 113.403ZM196.248 215.463C192.958 219.913 182.158 226.403 170.278 215.463C165.128 223.76 165.148 243.113 178.968 243.113C186.378 245.613 200.198 243.573 196.248 215.463Z" fill="#F8BF01"/>
<path d="M170.278 215.463C146.118 254.383 133.688 405.103 204.938 474.083C275.018 447.013 426.568 372.793 472.148 292.473C460.198 256.763 414.028 174.293 324.918 130.103L309.718 122.853C310.678 118.813 311.518 114.573 312.178 110.203C440.308 164.843 485.448 258.403 491.998 298.353C384.168 416.173 255.698 476.313 204.938 491.653L70.0482 463.203C54.2482 467.203 42.8682 458.193 39.1482 453.183C-26.2318 316.983 4.8182 221.953 54.5882 164.433C37.6882 129.903 28.7182 63.0233 128.098 71.7833C139.658 75.6633 163.818 86.9033 167.958 100.843C166.268 109.853 165.048 119.583 164.408 130.103C163.558 144.063 163.718 159.393 165.128 176.213V176.223C166.148 188.493 167.838 201.563 170.278 215.463ZM170.278 215.463C182.158 226.403 192.958 219.913 196.248 215.463C200.198 243.573 186.378 245.613 178.968 243.113C165.148 243.113 165.128 223.76 170.278 215.463ZM128.098 87.4833C132.678 89.6733 142.418 95.6333 144.788 101.983C141.348 102.573 138.068 103.773 135.618 104.993C114.418 113.693 89.3182 129.223 66.4982 151.873C54.9282 124.573 50.9182 73.4733 128.098 87.4833ZM279.098 141.863C272.478 149.383 263.218 164.433 279.098 164.433C287.358 163.593 303.888 159.893 303.888 151.873V141.863C287.058 151.263 280.348 145.773 279.098 141.863ZM226.858 113.403H182.628C181.738 126.113 182.158 139.143 183.438 151.873C184.278 160.263 185.378 171.093 186.858 178.913C198.398 158.893 231.388 117.783 270.978 113.403L287.618 116.963C288.358 111.713 288.848 106.703 289.108 101.953C278.808 100.493 248.458 101.733 226.858 113.403Z" stroke="black" stroke-width="3" stroke-miterlimit="10"/>
<path d="M311.18 109.57C310.52 113.94 309.68 118.18 308.72 122.22C307.06 129.24 305.03 135.68 302.89 141.23C286.06 150.63 279.35 145.14 278.1 141.23C278.1 131.87 282.25 129.49 284.32 129.47C285.26 124.92 286.03 120.54 286.62 116.33C287.36 111.08 287.85 106.07 288.11 101.32C291.1 45.9 262.77 23.95 246.01 19.86C201 33.84 184.5 71.65 181.63 112.77C180.74 125.48 181.16 138.51 182.44 151.24C183.28 159.63 184.38 170.46 185.86 178.28C188.44 191.98 191.79 204.51 195.25 214.83C191.96 219.28 181.16 225.77 169.28 214.83C166.84 200.93 165.15 187.86 164.13 175.59V175.58C162.72 158.76 162.56 143.43 163.41 129.47C164.05 118.95 165.27 109.22 166.96 100.21C180.01 30.72 221.44 4.90002 246.01 1.02002C308.78 16.55 317.39 68.84 311.18 109.57Z" fill="#F8BF01" stroke="black" stroke-width="3" stroke-miterlimit="10"/>
<path d="M470.82 292.39C425.24 372.71 273.69 446.93 203.61 474C132.36 405.02 143.34 258.42 167.5 219.5C165.63 227.31 163.82 243.03 177.64 243.03C185.05 245.53 198.87 243.49 194.92 215.38C191.46 205.06 188.08 189.2 185.5 175.5C197.04 155.48 230.06 117.7 269.65 113.32L286.29 116.88C285.7 121.09 284.93 125.47 283.99 130.02C281.92 130.04 277.77 132.42 277.77 141.78C271.15 149.3 261.89 164.35 277.77 164.35C286.03 163.51 302.56 159.81 302.56 151.79V141.78C304.7 136.23 306.73 129.79 308.39 122.77L323.59 130.02C412.7 174.21 458.87 256.68 470.82 292.39Z" fill="#F8BF01" stroke="black" stroke-width="3" stroke-miterlimit="10"/>
<path d="M440.76 257.72C452.25 279.24 448.3 302.35 432.38 322.35C416.46 342.34 388.63 359.14 352.62 367.93C316.61 376.73 279.34 375.84 248.21 367.33C217.07 358.83 192.21 342.75 180.72 321.23C169.23 299.71 173.18 276.6 189.1 256.6C205.02 236.61 232.85 219.81 268.86 211.02C304.87 202.23 342.14 203.11 373.27 211.62C404.41 220.12 429.27 236.19 440.76 257.72Z" fill="#F6BA00" stroke="black" stroke-width="3"/>
<path d="M411.85 264.77C420.76 281.46 417.71 299.41 405.33 314.97C392.95 330.52 371.28 343.6 343.24 350.45C315.2 357.3 286.19 356.6 261.97 349.99C237.74 343.37 218.45 330.88 209.53 314.19C200.62 297.5 203.67 279.55 216.05 263.98C228.44 248.43 250.1 235.35 278.13 228.5C306.17 221.65 335.18 222.35 359.4 228.96C383.64 235.58 402.94 248.08 411.85 264.77Z" fill="white" stroke="black" stroke-width="3"/>
<path d="M240.93 352.04C240.93 352.04 235.87 350.27 231.93 348.52L221.9 343.3C219.09 341.11 211.79 338.36 215.13 336.95L283.65 308.95C285.92 307.99 310.82 298.73 306.76 295.51C303.62 293.02 280.36 302.61 277.9 303.4L255.95 310.04C242.12 314.12 230.32 314.05 220.1 304.18L210.52 294.92C200.12 284.87 206 274.24 222.1 267.69L278.8 243.87C282.14 242.46 286.57 240.31 288.86 242.51L301.16 254.21C303.44 256.42 302.03 257 298.69 258.42L245.81 281.87C243.54 282.83 221.54 291.61 222.97 294.3C224.41 296.99 249.01 288.13 251.47 287.34L273.19 280.67C287.02 276.59 298.95 276.6 309.17 286.48L318.75 295.74C329.15 305.79 324.4 315.67 307.17 322.97L240.93 352.04Z" fill="#952215"/>
<path d="M347.11 276.85L358.2 274.06C361.59 273.21 362.59 271.79 361.41 269.66L360.19 267.45C359.01 265.32 356.87 264.69 353.49 265.55L342.4 268.34L347.11 276.85ZM359.01 298.29L375.96 294.02C379.35 293.17 380.35 291.75 379.16 289.62L377.46 286.55C376.28 284.42 374.19 283.87 370.8 284.73L353.85 289L359.01 298.29ZM337.03 269.69C338.61 269.28 339.45 268.17 338.91 267.22L331.72 254.41C331.16 253.43 332.25 252.67 333.87 252.26L354.9 246.96C371.99 242.65 384.37 248.63 388.97 256.9L391.07 260.68C393.24 264.6 392.74 267.7 389.48 270.2C389.11 270.49 389.5 270.88 390.07 270.8C400.51 269.25 407.27 271.93 411.31 279.21L415.33 286.46C420.23 295.28 414.55 301.39 397.2 305.76L346.11 318.63C344.07 319.15 341.86 318.56 341.17 317.33L317.84 274.67L337.03 269.69Z" fill="#952215"/>
<path d="M339.73 229.41L372.15 215.48L372.63 215.94L346.06 243.98C326.84 246.38 313.17 249.76 309.84 251.96L301.7 244.59L293.57 237.22C309.79 230.53 317.27 221.34 319.26 218.46L370.32 213.74L370.75 214.15L338.33 228.08C334.41 226.86 332.22 227.91 331.62 228.59C329.29 229.32 329.76 231.3 330.29 232.2C332.36 234.08 335.34 233.72 336.58 233.3C339.79 232.47 340.02 230.36 339.73 229.41Z" fill="#952215"/>
<path d="M65 152L53 165" stroke="black" stroke-width="3"/>
<path d="M68 464C24.1667 382 -18.8 196.3 164 117.5C166 112.5 164.8 102.5 144 102.5" stroke="black" stroke-width="3"/>
<path d="M225.5 114.5C214.5 120.833 191 136.5 183 155" stroke="black" stroke-width="3"/>
<path d="M164.5 179.5C138.667 238 102 381.6 170 468C175.5 476.667 195.2 493.9 208 491.5" stroke="black" stroke-width="3"/>
<path d="M162.5 137.5C120.5 168 49.1 270.4 99.5 436M99.5 436L129.5 442M99.5 436L71.5 429" stroke="black" stroke-width="3"/>
</svg>
