<svg width="1440" height="800" viewBox="0 0 1440 800" fill="none" xmlns="http://www.w3.org/2000/svg">
<rect width="1440" height="800" fill="white"/>
<path d="M727.64 425.607C727.64 425.607 743.698 195.464 1007.85 261.889L1073.38 273.373L1048.8 333.15C1048.8 333.15 955.142 563.437 750.681 469.654L1001.36 301.754L727.64 425.607Z" fill="#8CC63F" stroke="black" stroke-width="4" stroke-miterlimit="10"/>
<path d="M759.273 427.884C759.273 427.884 753.96 197.244 486.997 251.283L421 259.699L442.776 320.557C442.776 320.557 525.593 554.959 734.203 470.81L491.618 291.41L759.273 427.884Z" fill="#8CC63F" stroke="black" stroke-width="4" stroke-miterlimit="10"/>
<path d="M738.276 445.918C718.448 445.788 698.227 436.535 679.788 419.132C644.51 385.853 620.555 326.993 621.552 275.996C622.286 238.031 637.022 195.472 660.956 162.147C685.736 127.645 716.646 107.852 745.744 107.852C746.761 107.852 747.787 107.88 748.794 107.927C811.177 110.853 859.58 203.242 858.07 277.784C857.305 315.499 843.576 357.752 821.353 390.818C797.82 425.838 767.686 445.927 738.699 445.927L738.276 445.918Z" fill="#7F5900"/>
<path d="M745.744 106V109.705C746.72 109.705 747.707 109.733 748.693 109.77C763.036 110.446 777.167 116.022 790.705 126.358C803.326 135.991 815.304 149.847 825.359 166.444C845.328 199.389 856.802 241.004 856.057 277.746C855.292 315.147 841.684 357.048 819.642 389.845C808.58 406.304 795.677 419.891 782.32 429.135C767.998 439.045 753.323 444.075 738.699 444.075H738.296C719.022 443.954 699.284 434.887 681.227 417.854C664.358 401.942 649.372 379.249 639.015 353.955C628.416 328.058 623.072 301.115 623.555 276.042C624.29 238.42 638.894 196.231 662.627 163.184C687.045 129.201 717.331 109.705 745.744 109.705V106ZM745.744 106C681.892 106.009 621.079 196.379 619.529 275.977C618.009 354.446 673.588 447.363 738.256 447.779C738.407 447.779 738.538 447.779 738.689 447.779C803.397 447.779 858.503 355.14 860.073 277.821C861.613 202.029 812.385 109.066 748.895 106.083C747.838 106.028 746.791 106 745.744 106Z" fill="black"/>
<path d="M722.431 134C743.139 150.687 766.219 175.423 767.691 206.772C770.123 258.496 711.483 279.553 711.003 337.292C710.564 389.32 757.704 427.773 758.911 426.988C759.953 426.313 735.166 390.34 732.008 348.546C731.405 340.532 731.456 330.433 734.655 319.095C738.212 306.491 743.947 298.417 750.447 289.255C786.467 238.426 789.391 233.457 790.995 224.32C794.082 206.739 789.217 191.089 787.622 186.137C786.171 181.64 782.399 170.251 773.343 159.47C755.466 138.21 730.025 134.742 722.431 134Z" fill="black" stroke="black" stroke-width="4" stroke-miterlimit="10"/>
<path d="M579.17 532.269C583.01 532.269 584.93 533.997 584.93 537.453C584.93 540.448 583.278 543.482 579.976 546.554C576.75 549.549 572.834 551.046 568.226 551.046C566.459 551.046 565.154 550.97 564.309 550.816C562.389 554.349 559.47 560.301 555.554 568.672C551.714 577.043 548.795 583.187 546.798 587.104C556.168 583.11 562.658 575.776 566.267 565.101C566.421 564.64 566.843 564.371 567.534 564.294C568.226 564.141 568.878 564.218 569.493 564.525C570.107 564.832 570.338 565.254 570.184 565.792C568.264 571.552 565.115 576.659 560.738 581.114C556.437 585.568 551.214 588.755 545.07 590.675C537.544 604.73 530.133 614.79 522.837 620.858C526.754 623.622 529.787 625.696 531.938 627.078C534.165 628.384 537.083 629.728 540.693 631.11C544.302 632.493 547.72 633.184 550.946 633.184C557.934 633.184 563.848 629.421 568.686 621.894C572.603 615.904 574.523 609.875 574.446 603.808C573.909 598.509 571.912 595.629 568.456 595.168C564.002 595.168 560.315 597.472 557.397 602.08C554.478 606.611 553.019 610.912 553.019 614.982C553.019 618.976 553.749 621.357 555.208 622.125C554.824 623.277 554.133 623.853 553.134 623.853C549.909 623.853 548.296 621.318 548.296 616.25C548.296 611.104 549.678 606.304 552.443 601.85C556.283 595.629 561.314 592.518 567.534 592.518C574.216 592.518 577.557 596.666 577.557 604.96C577.557 609.952 575.944 615.443 572.718 621.434C568.494 629.421 563.042 634.758 556.36 637.446C553.749 638.522 550.946 639.059 547.95 639.059C544.955 639.059 541.998 638.675 539.08 637.907C536.238 637.139 533.397 635.91 530.555 634.221C527.79 632.531 525.64 631.072 524.104 629.843C522.568 628.691 520.379 626.925 517.538 624.544C512.776 627.386 507.784 628.806 502.562 628.806C494.19 628.806 488.853 626.694 486.549 622.47C485.858 621.242 485.512 619.898 485.512 618.438C485.512 616.902 486.28 615.328 487.816 613.715C490.043 611.104 493.115 609.798 497.032 609.798C500.949 609.798 504.674 610.605 508.206 612.218C511.739 613.754 515.733 616.019 520.187 619.014C526.792 613.562 533.474 604.499 540.232 591.827C537.698 592.211 534.626 592.403 531.016 592.403C527.406 592.403 523.72 591.75 519.957 590.445C516.194 589.062 513.198 587.258 510.971 585.03C508.744 582.726 506.939 580.115 505.557 577.197C504.251 574.278 503.598 571.206 503.598 567.981C503.598 564.755 503.944 561.53 504.635 558.304C505.326 555.078 506.555 552.006 508.322 549.088C510.165 546.17 512.238 543.597 514.542 541.37C516.923 539.066 519.726 537.261 522.952 535.955C526.254 534.573 529.787 533.882 533.55 533.882C537.39 533.882 541.038 534.573 544.494 535.955C548.027 537.338 551.522 539.066 554.978 541.139C558.51 543.136 561.467 544.518 563.848 545.286C569.224 536.608 574.331 532.269 579.17 532.269ZM529.749 538.029C522.76 538.029 516.885 541.331 512.123 547.936C508.053 553.542 506.018 559.61 506.018 566.138C506.018 575.738 509.896 582.534 517.653 586.528C521.877 588.678 526.946 589.754 532.859 589.754C536.085 589.754 539.08 589.408 541.845 588.717C543.842 584.954 546.952 578.579 551.176 569.594C555.477 560.608 558.741 554.157 560.968 550.24C557.742 549.472 554.248 548.051 550.485 545.978C546.798 543.827 543.227 541.984 539.771 540.448C536.392 538.835 533.051 538.029 529.749 538.029ZM488.507 618.784C488.507 620.397 489.621 622.01 491.848 623.622C494.075 625.235 497.493 626.042 502.101 626.042C506.786 626.042 511.163 624.851 515.234 622.47C511.547 619.398 508.206 617.094 505.211 615.558C502.293 613.946 499.106 613.139 495.65 613.139C492.27 613.139 490.043 614.33 488.968 616.71C488.661 617.402 488.507 618.093 488.507 618.784ZM578.939 535.61C575.33 535.61 571.374 539.104 567.074 546.093C568.456 546.323 569.877 546.438 571.336 546.438C574.869 546.438 577.71 544.864 579.861 541.715C580.936 540.256 581.474 539.104 581.474 538.259C581.474 536.493 580.629 535.61 578.939 535.61ZM596.708 611.181C596.708 620.474 600.011 625.12 606.615 625.12C609.073 625.12 611.646 624.045 614.334 621.894C617.099 619.667 619.595 617.018 621.822 613.946C626.737 606.88 630.193 601.12 632.19 596.666L633.687 593.44H636.798C635.492 596.512 633.572 600.314 631.038 604.845C628.503 609.299 626.084 613.062 623.78 616.134C621.476 619.206 618.75 622.01 615.601 624.544C612.452 627.002 609.457 628.23 606.615 628.23C595.249 628.23 589.566 621.856 589.566 609.107C589.566 603.194 591.294 597.28 594.75 591.366C599.511 583.149 605.387 579.04 612.375 579.04C617.291 579.04 619.748 581.728 619.748 587.104C619.748 591.098 618.212 595.245 615.14 599.546C610.839 605.382 605.809 608.339 600.049 608.416C599.204 608.416 598.667 608.032 598.436 607.264L598.321 606.803C602.315 606.803 606.116 604.192 609.726 598.97C613.412 593.67 615.255 589.254 615.255 585.722C615.255 583.341 614.334 582.15 612.491 582.15C608.42 582.15 604.619 585.722 601.086 592.864C598.167 598.931 596.708 605.037 596.708 611.181ZM631.897 628C629.747 628 628.671 626.349 628.671 623.046C628.671 621.28 630.822 608.416 635.123 584.454C635.353 582.842 636.044 582.035 637.196 582.035C638.579 582.035 639.615 583.034 640.307 585.03C640.691 586.106 640.883 587.296 640.883 588.602C640.883 589.83 640.729 591.174 640.422 592.634L638.579 601.85H639.27C646.182 586.336 652.787 578.579 659.084 578.579C661.542 578.579 663.423 579.347 664.729 580.883C666.035 582.342 666.687 584.378 666.687 586.989C666.687 589.6 665.651 595.245 663.577 603.923C661.503 612.602 660.467 618.63 660.467 622.01C660.467 627.002 661.388 629.498 663.231 629.498C663.231 630.035 662.886 630.573 662.195 631.11C661.503 631.648 660.697 631.917 659.775 631.917C655.321 631.917 653.094 628.422 653.094 621.434C653.094 617.133 654.246 610.643 656.55 601.965C658.931 593.21 660.121 587.642 660.121 585.261C660.121 582.803 659.161 581.574 657.241 581.574C654.476 581.574 651.135 585.184 647.219 592.403C643.379 599.622 640.268 606.534 637.887 613.139C635.583 619.667 634.239 623.776 633.855 625.466C633.548 627.155 632.895 628 631.897 628Z" fill="#8CC63F"/>
<path d="M736.013 522.707C730.176 522.707 724.916 524.09 720.231 526.854C711.552 532.077 706.445 540.294 704.909 551.507C704.679 553.274 704.564 555.424 704.564 557.958C704.564 560.493 705.024 563.334 705.946 566.483C707.252 571.168 709.824 575.392 713.664 579.155C717.428 582.918 722.151 585.491 727.834 586.874C730.215 578.118 733.824 569.939 738.663 562.336C743.501 554.656 749.607 548.282 756.98 543.213C764.352 538.067 772.109 535.494 780.25 535.494C787.316 535.494 791.616 538.336 793.152 544.019C793.613 545.478 793.844 547.014 793.844 548.627C793.844 553.312 792.077 558.496 788.544 564.179C783.015 573.318 774.951 580.269 764.352 585.03C756.058 588.794 747.111 590.675 737.511 590.675H735.207C733.594 596.358 732.788 601.85 732.788 607.149C732.788 617.133 735.322 624.045 740.391 627.885C741.082 621.587 742.695 615.674 745.229 610.144C747.764 604.614 751.258 599.968 755.712 596.205C760.244 592.442 765.236 590.56 770.688 590.56C776.986 590.56 780.903 593.363 782.439 598.97C782.823 600.506 783.015 602.08 783.015 603.693C783.015 607.917 781.671 612.448 778.983 617.286C774.759 624.736 768.884 629.805 761.357 632.493C755.904 634.336 750.49 634.643 745.114 633.414C745.037 634.413 744.999 635.411 744.999 636.41C744.999 642.016 746.189 646.739 748.57 650.579C751.258 655.11 755.636 657.376 761.703 657.376C761.472 658.835 760.205 659.565 757.901 659.565C751.757 659.565 747.226 657.03 744.308 651.962C741.466 646.893 740.045 640.902 740.045 633.99C740.045 633.222 740.045 632.493 740.045 631.802C733.44 628.96 729.063 623.507 726.912 615.443C725.837 611.603 725.3 607.533 725.3 603.232C725.3 598.931 725.914 594.362 727.143 589.523C721.767 588.294 717.12 586.067 713.204 582.842C709.287 579.616 706.484 575.93 704.794 571.782C702.567 566.33 701.453 561.299 701.453 556.691C701.453 552.083 702.183 547.744 703.642 543.674C705.101 539.603 707.213 535.763 709.978 532.154C712.666 528.467 716.314 525.51 720.922 523.283C725.53 520.979 730.599 519.827 736.128 519.827C747.034 519.827 754.484 524.051 758.477 532.499C758.938 533.421 758.4 534.035 756.864 534.342C755.021 534.496 753.869 534.074 753.408 533.075C751.104 526.163 745.306 522.707 736.013 522.707ZM778.752 538.49C774.375 538.49 769.92 539.949 765.389 542.867C760.935 545.709 756.864 549.472 753.178 554.157C745.344 564.141 739.623 575.392 736.013 587.91H737.626C752.679 587.91 765.351 583.11 775.642 573.51C782.477 567.136 786.663 560.262 788.199 552.89C788.506 551.277 788.66 549.818 788.66 548.512C788.66 544.518 787.2 541.638 784.282 539.872C782.823 538.95 780.98 538.49 778.752 538.49ZM771.725 593.67C765.504 593.67 759.821 597.472 754.676 605.075C749.607 612.678 746.496 621.126 745.344 630.419C747.341 631.034 749.453 631.341 751.68 631.341C760.128 631.341 767.232 627.654 772.992 620.282C777.524 614.598 779.789 608.992 779.789 603.462C779.789 597.933 777.792 594.746 773.799 593.901C773.184 593.747 772.493 593.67 771.725 593.67ZM799.4 612.794C799.4 620.858 801.55 624.89 805.851 624.89C808.769 624.89 811.496 623.085 814.03 619.475C818.868 612.717 821.825 603.808 822.9 592.749C820.212 591.597 818.331 589.715 817.256 587.104C816.564 585.491 816.219 584.147 816.219 583.072C816.219 581.92 816.372 580.922 816.68 580.077C817.371 578.003 818.638 576.966 820.481 576.966C822.324 576.966 823.707 578.157 824.628 580.538C825.627 582.842 826.126 585.798 826.126 589.408C826.126 589.638 826.126 589.907 826.126 590.214C827.048 590.522 828.392 590.675 830.158 590.675C832.001 590.675 833.614 589.946 834.996 588.486C836.379 587.027 837.07 585.683 837.07 584.454C837.07 584.147 837.262 583.955 837.646 583.878C838.03 583.725 838.376 583.725 838.683 583.878C839.067 584.032 839.259 584.262 839.259 584.57C839.259 586.797 838.299 588.909 836.379 590.906C834.536 592.902 832.04 593.901 828.891 593.901C828.123 593.901 827.124 593.824 825.896 593.67C825.435 598.893 824.321 604.077 822.555 609.222C820.865 614.291 818.484 618.707 815.412 622.47C812.34 626.157 809.038 628 805.505 628C798.824 628 794.715 624.429 793.179 617.286C792.795 615.213 792.603 613.101 792.603 610.95C792.603 606.112 793.716 600.928 795.944 595.398C798.862 588.179 802.472 583.686 806.772 581.92C809 581.152 810.536 581.037 811.38 581.574C812.225 582.112 812.763 582.726 812.993 583.418C809.46 583.418 806.312 586.72 803.547 593.325C800.782 599.93 799.4 606.419 799.4 612.794ZM861.385 596.896C861.385 603.731 862.46 607.149 864.61 607.149C864.534 608.07 863.881 608.531 862.652 608.531C860.732 608.531 859.273 607.379 858.274 605.075C857.353 602.694 856.892 599.738 856.892 596.205C853.82 597.51 850.633 598.278 847.33 598.509C843.183 624.39 839.65 642.093 836.732 651.616C832.278 666.592 826.94 674.08 820.719 674.08C816.572 674.08 814.498 671.93 814.498 667.629C814.498 665.709 814.921 663.328 815.766 660.486C818.146 652.499 822.562 644.166 829.014 635.488C832.009 631.494 834.62 628.614 836.847 626.848C837.308 623.93 838.038 619.322 839.036 613.024C840.034 606.65 840.802 601.811 841.34 598.509H838.23C837.846 598.509 837.654 598.163 837.654 597.472C837.654 596.704 837.846 596.32 838.23 596.32H841.686C845.449 572.282 849.442 555.731 853.666 546.669C855.279 543.059 857.199 540.064 859.426 537.683C861.654 535.302 864.073 534.112 866.684 534.112C871.522 534.112 873.942 537.645 873.942 544.71C873.942 550.47 872.175 556.691 868.642 563.373C864.342 571.437 859.196 576.39 853.206 578.234L850.556 578.81C849.865 582.573 848.905 588.371 847.676 596.205C850.902 595.974 854.012 595.13 857.007 593.67C857.391 589.6 858.313 586.144 859.772 583.302C861.308 580.384 863.228 578.925 865.532 578.925C867.375 578.925 868.297 580 868.297 582.15C868.297 586.221 866.031 589.984 861.5 593.44C861.423 594.592 861.385 595.744 861.385 596.896ZM865.647 561.76C869.103 555.078 870.831 549.242 870.831 544.25C870.831 539.258 869.602 536.762 867.145 536.762C863.689 536.762 860.732 540.141 858.274 546.899C855.817 553.581 853.436 563.219 851.132 575.814C856.662 574.586 861.5 569.901 865.647 561.76ZM836.271 630.189C831.894 634.72 827.708 641.21 823.714 649.658C819.721 658.106 817.724 663.75 817.724 666.592C817.724 669.51 818.569 670.97 820.258 670.97C823.791 670.97 826.786 667.437 829.244 660.371C831.702 653.306 834.044 643.245 836.271 630.189ZM861.846 590.33C863.228 589.024 864.265 587.642 864.956 586.182C865.724 584.723 866.108 583.571 866.108 582.726C866.108 581.805 865.878 581.267 865.417 581.114C863.727 581.114 862.537 584.186 861.846 590.33ZM893.869 596.896C893.869 603.731 894.944 607.149 897.095 607.149C897.018 608.07 896.365 608.531 895.136 608.531C893.216 608.531 891.757 607.379 890.759 605.075C889.837 602.694 889.376 599.738 889.376 596.205C886.304 597.51 883.117 598.278 879.815 598.509C875.668 624.39 872.135 642.093 869.216 651.616C864.762 666.592 859.424 674.08 853.204 674.08C849.056 674.08 846.983 671.93 846.983 667.629C846.983 665.709 847.405 663.328 848.25 660.486C850.631 652.499 855.047 644.166 861.498 635.488C864.493 631.494 867.104 628.614 869.332 626.848C869.792 623.93 870.522 619.322 871.52 613.024C872.519 606.65 873.287 601.811 873.824 598.509H870.714C870.33 598.509 870.138 598.163 870.138 597.472C870.138 596.704 870.33 596.32 870.714 596.32H874.17C877.933 572.282 881.927 555.731 886.151 546.669C887.764 543.059 889.684 540.064 891.911 537.683C894.138 535.302 896.557 534.112 899.168 534.112C904.007 534.112 906.426 537.645 906.426 544.71C906.426 550.47 904.66 556.691 901.127 563.373C896.826 571.437 891.68 576.39 885.69 578.234L883.04 578.81C882.349 582.573 881.389 588.371 880.16 596.205C883.386 595.974 886.496 595.13 889.492 593.67C889.876 589.6 890.797 586.144 892.256 583.302C893.792 580.384 895.712 578.925 898.016 578.925C899.86 578.925 900.781 580 900.781 582.15C900.781 586.221 898.516 589.984 893.984 593.44C893.908 594.592 893.869 595.744 893.869 596.896ZM898.132 561.76C901.588 555.078 903.316 549.242 903.316 544.25C903.316 539.258 902.087 536.762 899.629 536.762C896.173 536.762 893.216 540.141 890.759 546.899C888.301 553.581 885.92 563.219 883.616 575.814C889.146 574.586 893.984 569.901 898.132 561.76ZM868.756 630.189C864.378 634.72 860.192 641.21 856.199 649.658C852.205 658.106 850.208 663.75 850.208 666.592C850.208 669.51 851.053 670.97 852.743 670.97C856.276 670.97 859.271 667.437 861.728 660.371C864.186 653.306 866.528 643.245 868.756 630.189ZM894.33 590.33C895.712 589.024 896.749 587.642 897.44 586.182C898.208 584.723 898.592 583.571 898.592 582.726C898.592 581.805 898.362 581.267 897.901 581.114C896.212 581.114 895.021 584.186 894.33 590.33ZM909.88 611.181C909.88 620.474 913.182 625.12 919.787 625.12C922.245 625.12 924.818 624.045 927.506 621.894C930.27 619.667 932.766 617.018 934.994 613.946C939.909 606.88 943.365 601.12 945.362 596.666L946.859 593.44H949.97C948.664 596.512 946.744 600.314 944.21 604.845C941.675 609.299 939.256 613.062 936.952 616.134C934.648 619.206 931.922 622.01 928.773 624.544C925.624 627.002 922.629 628.23 919.787 628.23C908.421 628.23 902.738 621.856 902.738 609.107C902.738 603.194 904.466 597.28 907.922 591.366C912.683 583.149 918.558 579.04 925.547 579.04C930.462 579.04 932.92 581.728 932.92 587.104C932.92 591.098 931.384 595.245 928.312 599.546C924.011 605.382 918.981 608.339 913.221 608.416C912.376 608.416 911.838 608.032 911.608 607.264L911.493 606.803C915.486 606.803 919.288 604.192 922.898 598.97C926.584 593.67 928.427 589.254 928.427 585.722C928.427 583.341 927.506 582.15 925.662 582.15C921.592 582.15 917.79 585.722 914.258 592.864C911.339 598.931 909.88 605.037 909.88 611.181ZM949.677 611.181C949.677 620.474 952.979 625.12 959.584 625.12C962.042 625.12 964.614 624.045 967.302 621.894C970.067 619.667 972.563 617.018 974.79 613.946C979.706 606.88 983.162 601.12 985.158 596.666L986.656 593.44H989.766C988.461 596.512 986.541 600.314 984.006 604.845C981.472 609.299 979.053 613.062 976.749 616.134C974.445 619.206 971.718 622.01 968.57 624.544C965.421 627.002 962.426 628.23 959.584 628.23C948.218 628.23 942.534 621.856 942.534 609.107C942.534 603.194 944.262 597.28 947.718 591.366C952.48 583.149 958.355 579.04 965.344 579.04C970.259 579.04 972.717 581.728 972.717 587.104C972.717 591.098 971.181 595.245 968.109 599.546C963.808 605.382 958.778 608.339 953.018 608.416C952.173 608.416 951.635 608.032 951.405 607.264L951.29 606.803C955.283 606.803 959.085 604.192 962.694 598.97C966.381 593.67 968.224 589.254 968.224 585.722C968.224 583.341 967.302 582.15 965.459 582.15C961.389 582.15 957.587 585.722 954.054 592.864C951.136 598.931 949.677 605.037 949.677 611.181Z" fill="#7F5900"/>
</svg>
